<svg viewBox="0 0 861.55 462.48" xmlns="http://www.w3.org/2000/svg" data-sanitized-data-name="Calque 2" data-name="Calque 2" id="Calque_2">
  <defs>
    <style>
      .cls-1, .cls-2, .cls-3 {
        stroke-width: 0px;
      }

      .cls-2 {
        fill: none;
      }

      .cls-3 {
        fill: #fff;
      }
    </style>
  </defs>
  <g data-sanitized-data-name="Layer 1" data-name="Layer 1" id="Layer_1">
    <path d="m284.04,217.97c-3.41,5.69-6.35,10.23-9.12,14.89-.43.72-.39,1.87-.98,2.76-2.34,3.52-4.24,7.51-7.18,10.45-3.2,3.21-5.87,6.77-8.01,10.51-2.05,3.54-4.65,6.6-7.22,9.77-.86,1.06-1.68,2.17-3.26,2.74-1.15.42-2.58,1.76-3.09,3.49-.09.34-.72.62-1.14.85-.45.26-1.2.3-1.41.63-.69.98-1.52,1.8-2.71,2.51-1.26.74-2.73,1.17-4.21,1.12-.69-.04-1.18-.08-1.7-.12-.52-.03-1.03-.1-1.54-.17-.51-.07-1.02-.13-1.53-.17-.51-.06-1-.13-1.51-.16-1.07-.06-2.08-.73-3.17.04-.28.21-1.3.01-1.53-.3-.62-.8-1.39-1.09-2.33-1.38-4.1-1.16-8.02-2.69-11.85-4.38-2.4.35-4.27-1.18-6.22-2.15-1.46-.75-2.71-1.89-4.03-2.88-1.33-1-3.27-1.15-4.08-2.9-.12-.27-.85-.31-1.23-.49-1.7-.85-3.77-1.41-5.27-2.63-.78-.62-1.56-1.23-2.43-1.66-11.32-5.48-22.81-10.72-34.3-15.92-1-.45-1.89-1.02-3.26-.83-1.07.15-2.89-.64-3.45-1.54-.9-1.44-2.27-1.64-3.48-2.24-2.23-1.12-4.58-2.01-6.8-3.14-1.32-.67-3.09-.75-3.75-2.46-.06-.16-.49-.36-.69-.31-2.01.45-3.04-1.14-4.47-1.97-1.04-.6-2.14-1.07-3.58-1.05-1.4.02-3.37-.76-4.19-1.82-1.09-1.42-2.52-1.76-3.85-2.37-3.94-1.8-7.9-3.61-11.86-5.36-3.93-1.75-7.95-3.35-11.99-4.9-3.83-1.46-8-1.83-11.71-3.69-.89-.44-2.06-.36-2.58-1.51-.11-.24-.89-.41-1.26-.31-1.33.36-2.28-.31-3.47-.78-5.36-2.14-10.73-4.56-16.33-5.76-4.36-.95-8.36-2.65-12.55-4.05-1.4-.46-2.58-1.59-3.96-2.31-1.46-.77-2.73-1.49-4.08-2.18-.78-.44-1.39-1.15-2.53-1.02-.63.09-1.74-.61-2-1.17-.42-.93-1.04-1.61-1.73-2.21-.7-.58-1.48-1.09-2.15-1.71-3.9-3.42-7.43-7.27-10.41-11.48-.73-1.03-1.96-1.92-1.66-3.47.04-.21-.64-.63-.97-.97-.36-.36-.96-.7-1-1.1-.48-3.56-2.76-6.22-4.08-9.35-3.18-7.51-5.69-15.34-6.87-23.41-.33-2.24-1.51-4.11-1.69-6.35-.17-2.15-.39-4.31-.35-6.49.02-1.55-.44-3.12.69-4.52.31-.38.31-1.46.04-1.91-1.07-1.7-.45-3.53-.52-5.3-.12-2.17.74-4.34-.26-6.55-.26-.6.44-1.66.58-2.53.25-1.51.44-3.03.59-4.55.07-.73-.26-1.5-.18-2.24.27-2.84.65-5.68,1.21-8.55.6-2.88,1.29-5.75,2.84-8.83l.74-1.23c.25-.4.42-.61.63-.92l1.22-1.73,2.47-3.45,4.99-6.87c3.31-4.59,6.56-9.23,9.99-13.72,1.29-1.69,1.93-4.07,4.32-4.75.41-2.12,1.88-3.18,3.72-3.95.26-.11.28-.87.45-1.31.53-1.39.09-3.4,2.38-3.69.08-.01.14-.22.24-.3.97-.92.15-2.66,1.97-3.4,1.13-.46,1.92-1.98,2.79-3.08.91-1.13,1.84-2.26,2.58-3.5.76-1.28,2.37-2.1,2.19-3.98-.03-.3,1.33-.65,1.67-1.2,1.75-2.84,4.73-4.85,5.54-8.36.19-.8.95-1.72,1.68-2.16,2.63-1.61,3.85-4.05,5.54-6.65.29-.43.57-.85.89-1.29.42-.5.87-.99,1.34-1.47.5-.44,1.04-.85,1.58-1.25.57-.35,1.16-.66,1.76-.96,2.44-1.07,5.04-1.17,7.22-.5.94.25,1.3.57,2.22,0,.6-.36,1.64-.19,2.47-.12,4.59.52,8.85,1.77,12.94,3.27,4.09,1.5,8.02,3.26,11.87,5.11,2.1,1.01,3.48,3.06,5.78,3.73.95.28,1.69,1.35,2.87.81.16-.07.56.04.69.19,1.98,2.34,5.17,2.12,7.41,3.64.5.34.93.78,1.43,1.14.5.36,1.03.93,1.57.98,4.52.43,8.13,3.23,12.25,4.66,1.41.49,2.63,1.75,4.34,1.15.26-.09.85.19,1.05.46,1.72,2.4,4.74,2.47,7,3.89,1.16.73,2.88.6,3.49,2.21.08.2.63.31.97.37.6.1,1.28-.04,1.79.21,1.41.69,2.7,2.01,4.12,2.2,1.76.23,3.15,1.08,4.66,1.72.86.36,1.49,1.26,2.32,1.77.77.48,1.67.78,2.51,1.15,1.2.54,2.54.9,3.57,1.67,1.06.79,2.53.04,3.47,1.43.72,1.06,2.36.5,3.53.89.58.19,1.12.59,1.62.97.38.29.62.85,1.03,1,.92.35,1.69.95,2.88.9.82-.03,1.7,1.14,2.62,1.66.91.52,1.9.9,2.86,1.35.95.45,1.88,1.16,2.87,1.3,4.33.59,7.84,3.06,11.78,4.57,1,.4,2.33.47,2.77,1.84.08.24.64.5.98.51,4.27.14,7.68,2.82,11.63,3.92,2.81.78,5.69,1.28,8.41,2.48,2.63,1.17,5.32,2.53,8.1,3.04,2.3.43,4.56.88,6.55,1.97,1.95,1.07,4.74-.17,6.06,2.34,2.09.86,4.2,1.65,6.25,2.59,1.72.81,3.7,1.13,4.97,2.84.46.62,1.67,1.14,2.48,1.11,2.63-.07,4.61,1.16,6.54,2.73.46.37,1.34.18,1.95.45,1.84.78,3.68,1.64,5.39,2.67,2.57,1.51,5.23,2.81,7.97,3.97,1.35.62,2.7,1.25,4.05,1.89,1.16.58,2.33,1.16,3.5,1.74.76.36,2-.09,2.69.4,2.18,1.52,5.01,2.28,7.94,3.13,2.94.88,6.16,1.8,9.14,4.13.55.47,1.09.89,1.62,1.4.53.55,1.07,1.02,1.56,1.64l.73.93.35.46.2.3c.26.39.53.81.8,1.16l.41.54.39.47.1.12.17.16.34.32c.22.21.61.55.88.83.29.3.56.59.8.92.24.34.4.72.55,1.11.27.76.45,1.63.6,2.41l.36,1.85.32,1.5c.21,1.07.45,2.26.62,3.39.31,2.29.53,4.6.47,6.88,0,1.2-.97,2.41-.72,2.97.4.88.36,1.81.3,2.69-.05.89-.15,1.73.06,2.48.84,2.73-.36,5.17-.57,7.69-.18,1.86-1.36,3.59-.56,5.55.11.28-.09.89-.32,1.17-1.84,2.27-.97,5.3-2.35,7.66-.28,5.24-3.11,9.69-4.78,14.38-.25.69-.24,1.48-.38,2.21-.07.37-.07.85-.29,1.09-3.2,3.52-4.06,8.19-6.29,12.09-.74,1.29-1.72,2.42-2.47,3.69-.75,1.28-1.03,2.82-2.45,3.7-.45.28-.65,1.11-.79,1.73-.76,3.33-3.51,4.86-6.52,3.75-1.09-.41-.89-1.09-1-1.95-.23-1.65-.17-3.19.61-4.76.6-1.23,1.54-2.44,1.02-4-.09-.26.2-.81.47-1.05,1.86-1.71,2.23-4.42,3.77-6.13,1.18-1.31,1.7-2.79,2.56-4.16.72-1.16.77-2.67,2.24-3.49.5-.28.24-1.85.58-2.73.81-2.07,1.63-4.15,2.62-6.14,3-6.07,3.74-12.83,5.83-19.08-.11-2.47.42-4.77.88-7.1.27-1.16.45-2.33.64-3.49.12-1.17.24-2.33.13-3.49-.2-2.8-.27-5.52-.53-8.22-.24-2.74-.7-5.18-1.48-8.19-.11-.37-.17-.64-.17-.9-.02-.26.08-.6,0-.89-.04-.19-.1-.38-.18-.59-.03-.09-.11-.22-.21-.36-.1-.14-.17-.23-.31-.4-.54-.6-1.01-1.18-1.49-1.76l-.68-.87-.34-.43-.25-.28c-.57-.76-1.49-1.39-2.39-2.07-1.07-.71-2.65-.66-3.3-2.35-.08-.24-.69-.45-1.01-.39-2.61.48-4.8-1.01-7.31-1.6-.95-.22-1.86-.56-2.73-1.37-.95-.88-2.69-1.44-4.08-1.58-.53-.02-1-.18-1.45-.36l-.67-.28c-.19-.08-.39-.17-.58-.26-1.63-.69-3.06-1.78-4.56-2.75-1.51-.95-3.12-1.71-5-1.81-.9-2.14-3.16-2.71-4.93-3.24-6.87-1.95-12.88-5.73-19.52-8.23-1.59-.61-2.96-1.82-4.52-2.59-1.63-.81-3.37-1.44-5.1-2.06-.92-.33-1.8-1.19-2.9-.5-.08.05-.26.04-.35-.02-.91-.54-1.76-1.29-2.74-1.59-.88-.27-1.93.08-2.86-.09-1.12-.2-2.22-.6-3.3-1-1.04-.38-2.23-.59-2.74-1.78-1.23.76-2.21-.24-3.28-.56-1.01-.3-1.97-.75-2.95-1.13l-3.32-1.31c-1.11-.44-2.19-.96-3.32-1.29-1.56-.46-3.2-.67-4.75-1.17-1.64-.52-3.24-1.21-4.78-1.97-1.94-.96-3.76-2.13-5.66-3.19-.78-.43-1.6-.48-2.56-.45-1.27.04-3.11.49-3.83-1.56-.14-.41-1.14-.77-1.76-.82-4.86-.47-8.49-3.68-12.87-5.19-1.8-2.15-4.35-2.5-6.88-3.28-3.72-1.15-7.53-2.65-10.71-4.84-3.36-2.32-7.14-3.52-10.65-5.38-.99-.52-2.27-.6-2.7-1.97-.1-.31-.9-.59-1.39-.63-3.4-.27-6.14-1.82-8.85-3.82-1.43-1.05-3.41-1.43-5.33-1.82-2.88-.6-5.57-2.29-8.34-3.53-.66-1.74-2.14-.93-2.98-.68-1.13.33-1.95.11-2.94-.31-.64-.27-1.22-.59-1.89-.84-.71-.27-1.45-.45-2.29-.38-.87.07-2.26-.75-2.72-1.51-.63-1.02-1.09-.93-2.1-.99-1.18-.07-1.61-1.67-2.83-2.23-1.3-.59-3.08-.75-3.58-2.54-.04-.16-.44-.34-.67-.33-2.96.12-4.41-2.83-7.02-3.3-3.19-2.25-6.76-3.7-10.32-4.63-3.55-.91-7.1-1.33-10.03-1.29-1.2.02-2.36-.02-3.42.23l-.74.26c-.25.09-.44.26-.67.39-.23.13-.4.33-.56.53-.17.21-.29.36-.51.75-1.58,2.8-3.63,5.54-5.74,8.19-2.12,2.65-4.32,5.27-6.28,8.07-.83,1.18-1.33,2.89-3.19,3.13-.26.03-.64.58-.68.91-.31,2.47-1.88,3.94-3.85,5.19-.48.3-1.04,1.12-.97,1.57.2,1.28-.72,1.91-1.32,2.67-.72.93-2.29,1.7-2.33,2.54-.09,1.8-1.48,1.81-2.3,2.62-.51.5-.76,1.28-1.07,1.96-.15.32-.07.91-.27,1.02-2.28,1.19-2.29,3.99-4.01,5.56-.37.34-.66.77-1.04,1.08q-4.39,3.47-7.77,9.44c-2.42.55-1.75,3.74-3.95,4.65-.8.33-1.55,1.55-1.82,2.49-1.2,4.13-4.56,6.85-6.6,10.41-.21.37-.64.53-1,.77-.18.12-.34.26-.46.46-.07.16-.06.34.04.6.04.1-.01.18-.12.26-.1.1-.26.23-.44.36-.17.13-.37.27-.53.43-.16.18-.29.36-.36.55-.4,1.05-1.36,2.15-.68,3.64.26.58-.33,1.59-.45,2.42-.12,1.15-.8,2.21-.13,3.54.35.72.11,2.18-.41,2.85-2.21,2.77-.97,5.85-.6,8.74.11.88.22,1.49-.11,2.37-.45,1.24-1.07,2.91-.59,3.93.84,1.79.38,3.44.41,5.14,0,1.47-.03,2.94-.05,4.42-.03,1.52-.04,2.83.1,4.24.28,3.15.19,6.43,1.59,9.52.73,1.66,1.62,3.79.63,5.97-.11.24.86.81.99,1.31,1.03,3.92,2.31,7.76,3.68,11.54.31.86-.59,2.37.79,2.7,1.49.32-.29,2.22,1.36,2.28.24,0,.59.77.66,1.21.35,2.45,1.45,4.61,2.78,6.59,1.31,2.01,2.85,3.81,4.14,5.78.32.47.79.86,1.13,1.32.36.45.59.95.43,1.7.72.32,1.28.81,1.77,1.36.49.56.89,1.23,1.35,1.83.89,1.24,1.95,2.36,3.7,2.42,1.38,1.57,3.74,1.92,4.57,4.17.14.37.92.45,1.11.83.34.64.99.55,1.61.54.31,0,.62,0,.9.11.14.05.28.15.38.26.1.1.18.24.26.43.09.22.24.41.44.56.21.16.55.3.86.43.64.25,1.36.46,2.01.72,1.17.49,2.38.93,3.61,1.38l4.04,1.48c1.35.49,2.69,1.07,4.07,1.45,2.81.78,5.8.89,8.49,2.25.29.14.87.17,1.05,0,1.59-1.45,2.64.05,3.4.92.64.72,1.25,1.18,2.11,1.48,2.37.83,4.75,1.62,7.06,2.6,1.37.58,3.07.56,3.98,2.17.28.5,1.43.84,2.16.83,3.39-.07,6.19,1.8,9.25,2.81,1.39.46,2.74,1.04,4.09,1.62,1.02.45,2.37.12,3.1,1.27,2.79.33,5.49,1.37,7.91,2.5,2.46,1.14,4.87,2.45,7.38,3.47,4.99,2.04,9.88,4.34,14.77,6.62,1.22.57,2.85.64,3.42,2.29.11.31,1,.7,1.37.59,1-.3,1.69-.39,2.12.82.08.22.83.35,1.27.35,1.21,0,2.09.45,2.94,1.35.66.7,1.67,1.39,2.58,1.51,2.43.32,4.7.67,6.29,2.85.19.27,1.27-.18,1.73.08,1.77.99,3.93,1.22,5.34,2.98.58.72,1.81.94,2.69,1.47,1.52.92,3.34.97,4.86,2.11,1.54,1.15,3.54,1.72,5.33,2.55l5.39,2.49,5.38,2.52,5.38,2.55,5.39,2.61c1.82.92,3.6,1.77,5.55,2.88l.49.28.41.27c.27.18.53.37.79.57.51.41.99.87,1.46,1.41,2.39,2.79,6.25,4.64,11.28,5.77.36.08.69.29,1.04.44,4.5,1.96,9.16,3.36,13.59,4.71,1.95.62,3.86,1.44,5.89,1.51.45,0,.89.01,1.33.02.37-.01.75-.25.84-.83-.03-.69,1.88-.51,2.05-2.2.06-.6.96-1.34,1.65-1.51,2.33-.56,3.51-2.69,5.08-4.32,1.82-1.89,3.5-3.99,5.09-6.15.78-1.06,1.91-1.87,1.94-3.54.01-.82,1.23-1.89,2.14-2.44,1.4-.84,2.19-2.14,2.8-3.45,1.29-2.83,1.18-2.86,3.49-4.94.28-.25.5-.57.71-.88,2.12-3.11,4.64-6.08,6.12-9.49,1.23-2.84,2.8-5.39,4.38-7.97.63-1.03.88-2.51,2.49-2.72.23-.03.57-.62.59-.96.15-2.88,2.19-4.84,3.51-7.11,1.28-2.2,1.5-4.78,3.03-6.89,1.43-1.98,2.47-4.25,3.62-6.36.87-1.6,1.51-2.45,2.3-2.66.39-.09.83-.06,1.36.12.54.16,1.2.38,2,.7,2.68.98,2.83,2.28,1.91,5.25-1.98,6.35-6.13,11.5-8.51,16.21Z" class="cls-1"></path>
    <path d="m260.14,232.51c-1.03-.8-2.01-1.47-2.95-2.08-.94-.62-1.84-1.19-2.78-1.7-.29-.16-.96.18-1.3-.06-1.37-.94-3.09-1.4-4.06-2.86-1.06-1.6-2.53-2.59-4.24-2.99-1.62-.39-2.88-1.32-4.3-1.99-.49-.21-1.01-.34-1.15-1.27-.1-.68-.75-1.1-1.72-.53-.19.11-.3-.18-.41-.34-.12-.17-.11-.64-.3-.59-2.07.55-2.93-1.21-4.48-1.65-.38-.11-.55-.7-1.31.01-.19.18-.55.04-.54-.22.02-.68-.2-.92-.53-1.09-1.46-.7-2.89-1.46-4.33-2.2-1.29.78-1.82-.14-2.57-.53-.56-.29-.93-.98-1.38-1.49-.46-.52-1.44-.1-1.49-1.37,0-.2-.38,0-.55-.07-.77-.27-1.7-.27-2.2-.98-.26-.36-.51-.72-.86-.89-4.49-2.24-9.06-4.35-13.64-6.43-.4-.18-.72-.49-1.44-.02-.57.37-1.3.06-1.38-.61-.12-1.08-.77-.96-1.24-1.23-.87-.5-1.84-.78-2.7-1.28-.51-.3-1.38.02-1.32-1.37,0-.13-.17-.21-.28-.12-1.11.86-1.26-.35-1.8-.77-.39-.3-.83-.49-1.55-.14-.7.33-1.52.07-1.68-.7-.23-1.03-.87-1.01-1.4-1.26-3.14-1.48-6.29-2.91-9.49-4.26-1.51-.64-3.45-.27-4.78-1.36-.32-.26-.91,0-.86-.96,0-.2-.32-.23-.53-.08-.74.54-1.03.08-1.48-.16-2.04-1.1-3.97-2.53-6.35-2.79-1.85-.21-3.32-1.17-4.99-1.73-.56-.18-.83-.99-1.31-1.36-.47-.36-1.02-.56-1.56-.76-.33-.12-.53-.5-1.14,0-.33.27-.83.15-.87-.22-.15-1.25-.98-1.19-1.61-1.51-1.78-.93-3.64-1.69-5.39-2.66-.43-.24-1.16-.01-1.06-1.2.01-.16-.4.03-.61.04-.22.01-.58.19-.63-.01-.52-1.86-2.1-1.74-3.26-2.39-2.82-1.53-5.73-2.93-8.48-4.62-.77-.47-1.91-.02-2.66-.49-.71-.46-1.53-.74-2.21-1.26-.49-.36-1.29-.24-1.21-1.5.02-.34-.36-.55-.66-.39-1.13.62-1.48-.25-2.17-.46-.85-.26-1.25-1.31-2.58-.73-.36.16-.42-.6-.7-.82-.47-.38-.98-.72-1.53-.98-.27-.12-.72.07-.98-.06-2.03-.98-4.1-1.92-6.06-3.05-.5-.29-.99-.58-1.48-.89l-.73-.46-.36-.23-.18-.12-.14-.09c-.15-.11-.29-.23-.43-.35-.56-.5-1.09-1.25-1.33-2.08-.26-.83-.26-1.69-.08-2.43.36-1.48,1.39-2.79,3.07-3.37.81-.28,1.73-.3,2.43-.13.16.03.41.1.49.13l.1.03.2.07.81.27c2.16.72,4.36,1.35,6.47,2.2.8.31,1.95-.2,2.2,1.5,1.04-.61,1.51.15,1.82,1.35.04.17.42-.16.64-.22.67-.18,1.71-1.46,1.75.33,0,.07.1.02.14.06.42.4,1.34-1.07,1.63.11.18.73.91.72,1.42.96.52.25,1.05.52,1.64.59.61.07.95,1.03,1.91.03.16-.16.26.82.53.85,1.35.17,2.23,1.71,3.98.78.4-.21.83,0,1.02.39.69,1.42,1.89,1.28,3.13,1.32,1.63.06,3.27.45,4.1,2.49.18.43.22.73.72.32.33-.26.65-.05.93.06,3.14,1.22,6.28,2.47,9.4,3.74.85.34,1.19,1.79,2.23,1.72.43-.03.62.71,1.3-.11.09-.11.28-.13.31-.03.6,1.51,2.27.4,3.12,1.28.18.19.31.49.48.69.18.21.33.59.58.51,2.15-.68,3.37,1,5.12,1.33.6.11.94.98,1.91.03.15-.14.38-.03.42.17.36,1.77,1.83,1.15,2.66,1.91.42.39,1.3-.13,1.27,1.2,0,.17.25.14.4.11.27-.05.64-.33.84-.23.55.3.92,1.19,1.58,1.04.82-.2,1.34.24,1.95.47.35.13.48.79.78,1.06.28.25.67.31,1.01.45.48.2,1.07.22,1.42.67.37.46,1.24-.56,1.43.46.14.78,1.07-.11,1.57-.04.25.03.43.27.61.48.13.17.14.61.31.65.39.09.65.45,1.25.11.41-.23.62.6.97.85.35.24.77.34,1.15.51.39.16.71.57,1.17.45,2.04-.53,3.31.85,4.94,1.35.42.13,1.05-.08.97,1.07-.01.2.21.31.37.25,2.07-.79,3.14.99,4.82,1.22,1.19.16,2.47.06,3.51.65,1.01.57,1.99,1.3,3.22,1.24,1.01-.05,1.99-.08,2.71.52.7.59,2.31-1.11,2.4.91.82.34,1.67.62,2.46,1.04.67.35,1.55.19,1.83,1.46.1.46.59.63.99.41,1.3-.71,2.01-.07,2.67.82.16.21.62-.19.87-.11.75.23,1.52.45,2.18.88,1.99,1.29,4.58.94,6.74,1.78.4.15,1.15-.49,1.42-.14,1.64,2.12,4.35,1.59,6.18,3.16,2.71,2.31,6.19,2.65,9.26,4.08.4.19.51,1.21.8,1.03.89-.55,1.34.36,2.07-.03,1.3-.71,1.95.34,2.94.41.73.05,1.17,1.02,2.22.06.15-.14.37-.02.44.16.55,1.48,2.13.19,2.89,1.08,2.34-.64,3.86,1.01,5.82,1.45.29.07.67-.12,1-.17.17-.03.4-.14.48,0,1.1,2.08,3.28,1.7,4.81,2.8.51.36.89.98,1.38,1.36.5.39,1.23.29,1.37,1.39.04.34.43.35.71.34,1.54,0,1.67,2.26.35,5.18-.48,1.06-.76,1.01-1.21,1.28-.87.52-1.6.78-2.19.42-.46-.28-.86-.85-1.74-.02-.15.14-.36,0-.42-.18-.44-1.28-1.71-.95-2.24-1.92-.41-.74-1.04-.85-1.55-1.3-.43-.38-1.17-.04-1.28-1.18-.04-.38-.86.23-1.23.13-.86-.24-1.71-.51-2.48-.98-2.34-1.42-5.41-.83-7.78-2.17-2.3.66-3.71-1.26-5.76-1.26-2.47,0-4.49-1.24-6.8-1.68-.47-.09-.82-.26-1.09-.75-.18-.32-.36-.66-.62-.77-1.02-.44-2.1-.71-3.09-1.22-.53-.27-1.41.17-1.42-1.27,0-.2-.26-.28-.43-.17-1.38.92-2.08-.23-3.09-.43-.39-.08-.72-.26-.93-.86-.24-.65-.92-.86-1.54-.58-.47.21-.77.1-1.13.08-1.5-.1-2.37-1.92-4.27-.91-.16-1.6-1.18-1.49-1.99-1.45-3.14.15-5.44-1.81-8.18-2.65-.66-.21-1.07-1.04-1.67-1.42-.63-.4-1.33-.63-2.04-.85-.38-.12-.62-.73-1.3.12-.05.06-.14.09-.17.05-.32-.32-.57-.84-.97-.93-.37-.08-.95.45-1.37.48-.5.04-.94-.13-1.37-.29-.42-.15-.95-.12-.92-1.11-.76.93-1.02.2-1.46.11-.42-.08-.78-.31-1.17-.47l-1.31-.55c-.44-.18-.84-.45-1.32-.53-.66-.1-1.4.04-2.04-.1-.67-.15-1.31-.42-1.89-.79-.73-.47-1.37-1.13-2.08-1.64-.29-.21-.68-.07-1.16.18-.63.32-1.63,1.19-1.56-.48.01-.33-.4-.41-.7-.31-2.31.78-3.52-1.2-5.39-1.5-.47-1.5-1.67-1.2-2.77-1.31-1.62-.15-3.2-.61-4.32-1.85-1.19-1.31-2.81-1.53-4.16-2.4-.38-.24-1-.02-.93-1.16.02-.26-.32-.33-.56-.25-1.62.54-2.65-.23-3.58-1.41-.49-.62-1.39-.5-2.25-.41-1.3.13-2.27-.77-3.39-1.23.03-1.42-.86-.33-1.33.09-.62.57-.98.57-1.38.42-.51-.19-.92-.61-1.74-.02-.42.3-.95-.03-1.05-.57-.13-.72-.38-.51-.87-.27-.58.29-.53-1.02-1.05-1.17-.56-.16-1.43.21-1.38-1.27,0-.13-.17-.18-.28-.12-1.52.91-1.74-1.39-2.95-1.21-2.36-2.65-5.85-2.59-8.61-4.28-1.14-.7-2.01-2.12-3.45-2-3.01.26-5.22-1.61-7.87-2.3-.56-.15-1.39.2-1.42-1.24,0-.2-.26-.27-.42-.16-1.23.86-1.89.21-2.42-.88-.13-.26-.51-.38-.74-.11-.65.74-.92.25-1.27.1-.43-.18-.74-1.15-1.16-.8-.89.74-.83-.42-1.2-.74-.22-.2-.6-.06-.93-.01-.15.02-.45.35-.49.23-.49-1.38-1.88-.12-2.57-.87-.15-.16-.35-.2-.49-.39-1.53-2.12-1.54-2.11-4.34-2.23-.19-1.79-1.77.23-2.14-1.21-.14-.53-.71-.61-1.15-.41-.12.05-.24.1-.36.13l-.17.05-.09.02h-.02s0,0,0,0h0s0,0,0,0c.42-1.32-.95,2.95.95-2.95h0s.01-.03.01-.03c.05-.2,0-.22.03-.17.02.05.1.09.07.07-.03-.02-.14,0-.12,0,0,0,.04-.02.1-.08.02-.02.03-.03.04-.05l.02-.03h0s1.93-2.82,1.93-2.82h0s.01.01.01.01l.12.09.48.37c.32.24.67.45,1.06.58.33.11-.07,1.16.79.65.32-.19.25.91.57,1.08.47.24.62,1.05,1.64.44.42-.25.62.3.97.42.47.16.66.77,1.54.28.48-.26,1,.06,1.03.58.11,2.19,1.97,1.4,3.28,1.46.4.02.69,0,.87.41.25.58.59,1.35,1.2,1.11,1.08-.44,1.46.23,2.08.52,1.07.51,2,1.27,3.09,1.75,1.26.51,2.23,1.55,3.86,1.43.87-.06,1.93,0,1.95,1.66,0,.18.67-.38.86-.28,1.53.75,3.02,1.55,4.51,2.4.34.2.07,1.67.92.81.9-.92.18,1.42,1.13.25.14-.17.45.01.55.22,1.09,2.28,3.48,2.13,5.11,3.4.39.31,1.16,0,.96,1.29,1.71-.7,1.74,2.43,3.78.98.65.71,2,.08,2.14,1.78.02.27.45.09.5.35.18.89,1.44-.98,1.54.35.06.76.86.72,1.36.99.46.25.95.44,1.42.66l1.57.72c.52.24,1.01.56,1.57.7,1.14.29,2.55-.06,3.47.77.1.09.37.03.51-.16,1.15-1.56,1.25-.35,1.38.32.11.56.28.88.62,1.03.92.39,1.86.73,2.71,1.25.51.31,1.33,0,1.35,1.33,0,.41.47.53.83.39,1.65-.63,2.52.58,3.76.93.56.16,1.07.44,1.58.7.39.2,1.12-.36,1.2.53,2.58-.53,4.17,1.28,6.22,2,2.04.72,3.97,1.69,5.91,2.65.49.24,1.29-.06,1.2,1.29-.02.26.35.4.55.22.57-.5.94-.73.88.26-.01.18.34.12.56.03.61-.28.95-.06,1.17.55.18.48.52.88.96.78,1.15-.26,2.22-.46,2.52,1.15.04.2.68-.44.86-.32.67.49,1.71.22,2.01,1.48.13.52.7.44,1.02.72.56.48,1.46.13,1.97.8.51.68,1.39.74,2.11,1.08l2.16,1,2.15,1.04,2.15,1.04,2.15,1.04c.72.35,1.44.68,2.15,1.04.5.25.9.61,1.18,1.3.71,1.8,2.32,2.44,4.68,2.5.17,0,.29.14.43.21,1.84.95,3.82,1.66,5.48,2.95.72.57,1.25,1.52,2.11,1.88.56.24.98.69,1.9.29.77-.34.83,1.01,1.92.25.4-.28.89.02.97.47.26,1.49,1.43,1.43,2.24,1.99.91.67,1.89,1.23,2.9,1.73.5.25.76.87,1.75.32.48-.27.89.36,1.02.92.21.87.81,1.08,1.45,1.16,1.39.16,1.44.06,2.12,1.32.08.15.22.24.35.32,1.3.87,2.37,2.13,3.97,2.46,1.33.28,2.39.93,3.45,1.6.42.27,1.23.12.86,1.39-.05.18.19.32.39.26,1.66-.55,2.14.77,3.04,1.39.86.61,2.31.3,3.02,1.17.66.82,1.63,1.27,2.45,1.9,1.26.95,1.06,1.74-1.09,4.44-1.77,2.23-2.46,2.48-3.8,2.24-2.82-.51-4.3-2.8-6.18-3.74Z" class="cls-1"></path>
    <path d="m295.35,179.39c-2.07-1.18-3.81-2.08-5.63-2.8-.28-.11-.87.33-1.21.15-1.36-.68-3.04-.77-4.06-2.07-1.12-1.43-2.59-2.12-4.21-2.25-1.53-.12-2.81-.79-4.21-1.19-.47-.13-.96-.18-1.18-1.07-.16-.65-.79-.98-1.63-.26-.16.14-.3-.12-.41-.26-.13-.15-.17-.61-.33-.53-1.86.87-2.84-.7-4.32-.88-.37-.04-.59-.58-1.22.24-.16.21-.51.13-.52-.13-.05-.67-.27-.88-.6-.99-1.41-.47-2.8-1.01-4.21-1.51-1.12.96-1.7.15-2.43-.12-.55-.2-.95-.82-1.42-1.25-.48-.43-1.35.13-1.51-1.12-.03-.2-.35.05-.52.01-.73-.16-1.6-.03-2.12-.65-.27-.32-.54-.64-.88-.76l-13.17-4.55c-.38-.13-.7-.4-1.35.16-.51.43-1.21.22-1.32-.44-.18-1.05-.77-.87-1.22-1.08-.83-.4-1.75-.58-2.59-.99-.49-.25-1.29.16-1.3-1.21,0-.13-.16-.19-.26-.1-1,.95-1.19-.23-1.71-.6-.37-.27-.79-.4-1.46,0-.65.39-1.42.2-1.6-.54-.24-1.01-.83-.94-1.34-1.15l-8.91-3.69c-1.4-.58-3.25-.14-4.45-1.2-.29-.25-.85.02-.77-.94.02-.2-.29-.22-.49-.07-.72.55-.97.1-1.38-.14-1.87-1.07-3.61-2.45-5.83-2.69-1.72-.21-3.05-1.15-4.57-1.72-.51-.19-.72-.98-1.14-1.34-.41-.35-.92-.55-1.42-.74-.3-.12-.46-.49-1.07,0-.33.27-.78.15-.8-.22-.06-1.23-.84-1.17-1.4-1.49-1.61-.91-3.27-1.72-4.86-2.64-.39-.23-1.09,0-.92-1.17.02-.16-.37.03-.57.04-.21.01-.55.19-.59,0-.37-1.83-1.86-1.7-2.9-2.34-2.52-1.54-5.21-2.78-7.7-4.36-.7-.44-1.78.03-2.46-.4-.65-.42-1.38-.7-2.02-1.14-.45-.32-1.2-.15-1.11-1.38.03-.34-.33-.52-.61-.34-1.07.68-1.38-.14-2.02-.3-.79-.19-1.16-1.2-2.39-.53-.33.18-.39-.56-.65-.75-.44-.34-.91-.63-1.42-.84-.25-.1-.67.14-.92.05-1.92-.71-3.87-1.36-5.72-2.2-.94-.42-1.86-.89-2.78-1.37l-1.4-.75c-.57-.3-1.15-.75-1.61-1.39-.47-.63-.76-1.4-.85-2.15-.16-1.49.31-2.84,1.35-3.9.52-.52,1.22-.95,1.97-1.16.77-.23,1.51-.22,2.14-.1l.91.19,1.53.34c1.02.23,2.04.48,3.04.78.75.23,1.78-.43,2.14,1.22.91-.73,1.41-.04,1.78,1.1.05.16.38-.21.57-.29.61-.26,1.46-1.64,1.63.13,0,.07.1.01.14.04.41.35,1.15-1.22,1.5-.08.22.71.89.6,1.38.78.5.18,1.01.38,1.56.37.57-.01.95.89,1.76-.21.13-.18.31.77.55.77,1.27-.01,2.19,1.43,3.73.29.35-.26.76-.11.97.25.75,1.32,1.84,1.02,3,.91,1.51-.15,3.05.03,3.98,1.93.2.4.26.69.69.23.29-.3.6-.13.86-.05,3,.83,6,1.65,8.98,2.52.81.24,1.23,1.62,2.19,1.43.4-.08.62.63,1.2-.26.08-.12.25-.16.29-.07.66,1.43,2.13.11,2.99.87.18.16.32.44.5.62.18.18.34.54.58.43,1.94-.93,3.19.61,4.83.73.56.04.94.85,1.78-.19.13-.16.35-.07.4.12.45,1.71,1.78.92,2.59,1.58.42.34,1.2-.28,1.25,1.04,0,.17.24.11.38.07.25-.08.58-.4.77-.31.53.24.92,1.08,1.53.86.75-.28,1.25.1,1.84.26.33.09.49.73.78.96.28.22.64.24.96.34.46.15,1.01.1,1.36.51.36.42,1.13-.68,1.36.31.17.75.99-.21,1.46-.19.23,0,.42.22.59.42.13.15.16.59.32.61.37.05.62.38,1.17,0,.37-.27.6.54.94.75.34.21.73.27,1.09.4.37.13.68.5,1.11.34,1.88-.71,3.13.53,4.65.91.39.1.98-.16.94.98,0,.2.2.3.36.22,1.91-.94,2.96.74,4.53.84,1.12.07,2.32-.12,3.3.39.95.5,1.88,1.17,3.03,1.04.94-.11,1.87-.18,2.55.37.66.54,2.17-1.22,2.26.78.77.3,1.58.52,2.31.9.62.32,1.46.14,1.7,1.39.09.45.54.6.92.37,1.22-.74,1.89-.13,2.5.73.14.2.59-.21.82-.14.7.21,1.42.39,2.04.81,1.84,1.22,4.28.89,6.28,1.7.37.15,1.11-.49,1.35-.14,1.45,2.1,4.03,1.61,5.66,3.22,2.39,2.36,5.62,2.77,8.36,4.31.36.2.37,1.22.65,1.05.88-.51,1.22.41,1.93.06,1.28-.64,1.78.41,2.71.52.67.08,1,1.04,2.07.14.16-.13.35-.01.39.17.37,1.46,1.96.29,2.58,1.19,2.23-.54,3.48,1.15,5.26,1.64.26.07.63-.1.95-.14.16-.02.39-.13.44.02.84,2.06,2.87,1.78,4.19,2.88.43.37.73.98,1.16,1.36.43.38,1.11.3,1.16,1.38.01.33.37.34.63.35,1.43,0,1.38,2.22-.05,5.08-.52,1.04-.78.99-1.22,1.25-.85.51-1.55.76-2.09.4-.41-.28-.74-.85-1.63-.05-.15.13-.33,0-.38-.18-.32-1.27-1.53-.98-1.95-1.95-.32-.74-.9-.87-1.33-1.33-.37-.38-1.08-.08-1.09-1.21,0-.38-.83.2-1.16.09-.78-.26-1.55-.56-2.23-1.04-2.05-1.47-4.95-1.05-7.02-2.45-2.21.57-3.33-1.37-5.23-1.45-2.29-.1-4.03-1.4-6.14-1.88-.43-.1-.74-.27-.95-.76-.14-.32-.28-.66-.51-.78-.9-.46-1.88-.74-2.76-1.26-.47-.28-1.31.15-1.22-1.28.01-.2-.22-.28-.38-.17-1.34.89-1.91-.23-2.83-.43-.35-.08-.65-.25-.81-.85-.18-.64-.81-.84-1.4-.56-.44.21-.72.11-1.05.09-1.38-.08-2.11-1.87-3.9-.84-.08-1.58-1.04-1.44-1.79-1.38-2.91.27-4.98-1.59-7.5-2.31-.6-.18-.98-.97-1.53-1.31-.58-.35-1.23-.55-1.89-.72-.35-.09-.57-.68-1.2.19-.05.06-.13.09-.15.06-.3-.3-.52-.8-.9-.86-.34-.05-.88.5-1.26.55-.46.07-.87-.07-1.27-.19-.39-.12-.87-.05-.86-1.04-.7.97-.93.26-1.34.21-.39-.05-.73-.24-1.09-.37l-1.22-.44c-.41-.15-.79-.38-1.23-.42-.61-.05-1.29.15-1.89.06-.63-.09-1.22-.31-1.76-.63-.68-.4-1.29-1-1.96-1.46-.28-.19-.63,0-1.06.28-.57.37-1.46,1.33-1.46-.33,0-.33-.39-.37-.65-.24-2.1.99-3.29-.85-5.03-.96-.49-1.43-1.58-1.04-2.6-1.02-1.5.03-2.98-.26-4.08-1.36-1.16-1.17-2.67-1.21-3.95-1.92-.36-.2-.92.08-.92-1.04,0-.26-.32-.28-.53-.18-1.46.73-2.46.08-3.39-.97-.49-.55-1.31-.33-2.1-.14-1.19.28-2.14-.5-3.2-.82-.07-1.41-.82-.23-1.22.25-.53.64-.87.68-1.24.59-.49-.12-.89-.49-1.61.2-.37.35-.88.09-1.01-.43-.17-.7-.39-.46-.82-.16-.51.35-.56-.94-1.05-1.03-.52-.09-1.3.38-1.36-1.08,0-.13-.17-.16-.27-.08-1.33,1.08-1.7-1.17-2.81-.83-2.38-2.3-5.59-1.82-8.26-3.14-1.1-.54-2.02-1.83-3.34-1.53-2.76.64-4.95-.91-7.44-1.3-.53-.08-1.27.37-1.41-1.04-.02-.2-.26-.24-.4-.1-1.07,1-1.72.44-2.3-.56-.14-.24-.5-.31-.69-.02-.54.81-.83.36-1.17.25-.41-.13-.77-1.05-1.13-.66-.77.84-.8-.32-1.16-.6-.22-.17-.56.01-.85.09-.14.04-.39.4-.44.29-.56-1.3-1.74.12-2.45-.53-.15-.14-.34-.16-.48-.33q-1.58-1.91-4.18-1.73c-.15-.88-.55-.77-.98-.62-.21.08-.43.16-.62.14-.1,0-.18-.04-.26-.12l-.03-.03.66-2.94v-.06s.02-.1.02-.1c0-.09-.03-.09.02-.03.05.05.09.05.04.04-.04-.01-.12.02-.1,0,0,0,.05-.04.08-.08.03-.04.05-.07.07-.11h0c2.99-5.87.83-1.64,1.5-2.95h0s0,0,0,0h0s0,0,0,0h.04s.07.02.07.02c.38.08.73.25,1.06.45.66.4,1.25.91,2.02,1.07.32.07.03,1.15.8.55.29-.23.3.87.62,1,.47.19.65.96,1.59.25.38-.29.62.23.95.3.46.1.67.68,1.5.12.45-.31.97-.04,1.02.47.21,2.11,1.91,1.23,3.18,1.21.38,0,.66-.05.84.36.25.56.58,1.3,1.16,1.02,1.03-.5,1.4.15,2,.4,1.03.45,1.92,1.14,2.96,1.56,1.18.48,2.08,1.49,3.62,1.34.83-.08,1.84-.03,1.8,1.6,0,.18.65-.38.83-.29,1.43.72,2.84,1.45,4.18,2.31.31.2-.02,1.65.82.8.9-.91.09,1.4,1.05.25.14-.17.42.01.5.22.9,2.25,3.15,2.1,4.62,3.33.35.3,1.08.02.82,1.28,1.65-.66,1.46,2.4,3.46.99.56.7,1.86.09,1.88,1.76,0,.27.42.08.45.34.11.87,1.41-.97,1.41.34,0,.75.76.7,1.2.97.41.25.85.45,1.27.66l1.41.7c.47.23.9.55,1.42.69,1.04.29,2.37-.08,3.17.72.09.09.34.02.48-.16,1.15-1.55,1.17-.37,1.26.29.07.55.21.86.52,1,.83.36,1.67.67,2.44,1.16.45.29,1.22-.03,1.19,1.27-.01.4.41.51.75.36,1.54-.69,2.3.46,3.43.76.51.13.97.39,1.43.62.35.18,1.03-.42,1.09.45,2.35-.67,3.77,1,5.66,1.54,1.85.56,3.64,1.32,5.44,2.07.45.19,1.17-.19,1.14,1.15,0,.26.33.36.52.16.51-.55.83-.81.82.16,0,.18.32.09.51-.03.55-.34.86-.16,1.1.41.18.45.52.81.91.66,1.04-.38,2-.69,2.37.85.04.19.6-.52.77-.42.64.4,1.58,0,1.93,1.2.15.49.67.34.98.57.54.4,1.35-.06,1.86.54.52.61,1.33.55,2.02.79l2.05.71,2.06.71,2.06.71,2.06.71c.69.24,1.38.47,2.06.72.48.18.88.47,1.19,1.11.81,1.64,2.37,2.02,4.55,1.71.16-.02.28.09.42.14,1.79.63,3.67,1.08,5.33,2.06.73.43,1.31,1.26,2.14,1.48.54.14.98.52,1.79-.03.67-.46.87.85,1.8-.07.34-.33.83-.13.95.3.39,1.43,1.46,1.2,2.26,1.62.92.49,1.89.85,2.88,1.16.49.16.8.73,1.66.03.42-.34.86.21,1.04.73.28.81.86.93,1.47.9,1.31-.07,1.35-.17,2.1.98.09.14.22.2.35.26,1.31.61,2.45,1.63,3.98,1.69,1.27.07,2.32.55,3.38,1.05.42.2,1.16-.06.93,1.23-.03.18.21.29.38.2,1.5-.75,2.1.41,3,.88.87.47,2.24-.11,2.97.69.69.72,1.64,1.05,2.47,1.56,1.26.78,1.13,1.58-.74,4.48-1.54,2.4-2.17,2.73-3.43,2.67-1.33-.07-2.36-.6-3.3-1.2-.95-.57-1.82-1.2-2.74-1.5Z" class="cls-1"></path>
    <g>
      <path d="m850.36,414.87c-157.11-78.74-188.45-82.83-316.23-137.51-17.24-7.37-226.8-105.3-226.8-105.3l-23.58,38.04s173.72,94.26,273.26,135.98c49.77,20.86,153.03,74.68,203.41,94.04,15.69,6.03,48.58,14.75,62.87,19.05,23,6.92,48.92-33.35,27.08-44.29Zm-12.46,20.06c-.7,2.6-3,4.57-5.54,5.46-2.55.89-5.32.86-8.01.56-10.02-1.1-19.22-5.62-27.76-10.76-3.17-1.91-8.18-3.99-8.81-8.09-.63-4.11,2.93-8.7,6.45-10.3,4.17-1.89,9.02-1.44,13.48-.42,8.97,2.05,17.45,6.24,24.52,12.13,3.45,2.88,6.84,7.07,5.67,11.41Z" class="cls-1"></path>
      <g>
        <path d="m850.36,414.87c-157.11-78.74-188.45-82.83-316.23-137.51-17.24-7.37-226.8-105.3-226.8-105.3l-23.58,38.04s173.72,94.26,273.26,135.98c49.77,20.86,153.03,74.68,203.41,94.04,15.69,6.03,48.58,14.75,62.87,19.05,23,6.92,48.92-33.35,27.08-44.29Zm-12.46,20.06c-.7,2.6-3,4.57-5.54,5.46-2.55.89-5.32.86-8.01.56-10.02-1.1-19.22-5.62-27.76-10.76-3.17-1.91-8.18-3.99-8.81-8.09-.63-4.11,2.93-8.7,6.45-10.3,4.17-1.89,9.02-1.44,13.48-.42,8.97,2.05,17.45,6.24,24.52,12.13,3.45,2.88,6.84,7.07,5.67,11.41Z" class="cls-2"></path>
        <path d="m838.2,439.18c-.79.91-1.58,1.44-2.26,2.12-.11.1.11.75-.07.84-.67.35-1.16,1.29-2.14.86-1.05-.48-1.7-.39-2.29.28-.56.63-1.26.58-1.9.81-.21.07-.43.23-.71-.5-.21-.53-.5-.58-.7.4-.04.19-.14,0-.22-.09-.08-.09-.17-.51-.22-.37-.62,1.49-1.27.35-1.89.67-.16.08-.29-.36-.5.61-.05.25-.21.28-.24.05-.07-.62-.18-.75-.32-.75-.63-.01-1.23-.12-1.84-.2-.47,1.23-.74.62-1.06.56-.24-.05-.41-.53-.6-.81-.19-.29-.6.47-.62-.68,0-.18-.16.13-.23.14-.31.04-.7.37-.9-.1-.1-.24-.2-.48-.34-.51-1.82-.41-3.61-.91-5.38-1.46-.15-.05-.25-.24-.65.41-.31.5-.6.44-.54-.15.11-.95-.2-.66-.37-.78-.31-.22-.7-.2-1.01-.43-.18-.13-.64.39-.35-.88.03-.12-.04-.15-.1-.04-.67,1.07-.51.02-.67-.22-.12-.17-.28-.22-.69.27-.4.48-.72.45-.63-.2.12-.87-.18-.7-.37-.79-1.12-.55-2.24-1.09-3.4-1.56-.54-.22-1.58.54-1.9-.14-.08-.16-.44.2-.14-.66.06-.18-.09-.13-.23.05-.51.64-.52.29-.66.17-.65-.55-1.17-1.35-2.25-1.09-.84.2-1.27-.32-1.9-.48-.21-.05-.09-.68-.21-.9-.12-.21-.33-.26-.53-.32-.12-.03-.1-.32-.57.24-.25.3-.46.3-.36,0,.33-1.03-.1-.81-.3-.96-.61-.43-1.16-.67-1.75-1.07-.14-.1-.57.27-.16-.77.06-.14-.2.12-.31.18-.11.07-.34.3-.31.14.3-1.47-.53-1-.92-1.3-.94-.72-2.06-1.18-2.95-2.17-.23-.28-1.16.18-1.41-.17-.23-.31-.58-.52-.75-.88-.11-.24-.74-.21.09-1,.23-.21.12-.35-.18-.27-1.14.29-.8-.29-1.08-.49-.39-.28.17-.87-1.09-.89-.35-.01.19-.4.21-.56.03-.3,0-.58-.1-.84-.04-.13-.46-.2-.51-.34-.4-1.04-.67-2.2-.53-3.37.11-1.19.66-2.33,1.19-3.35.48-.96,1-1.87,1.75-2.6.28-.25-.11-1.18,1.27-.41-.44-.87.19-.74,1.12-.19.13.08-.1-.31-.12-.45-.1-.44-.94-1.79.39-.71.05.04.03-.04.06-.03.32.04-.61-1.39.27-.78.54.39.62,0,.86-.1.24-.11.5-.19.65-.45.17-.28.78.27.43-.97-.05-.2.54.48.62.38.46-.56,1.37.3,1.41-1.29.01-.37.23-.4.46-.16.81.88,1.06.23,1.48-.29.53-.67,1.29-1.01,2.11.48.17.32.25.57.32,0,.05-.37.21-.31.33-.32,1.38-.14,2.74-.12,4.06-.03.36.03.58,1.26.97.85.17-.17.26.46.51-.53.03-.14.11-.21.13-.13.27,1.22.93-.37,1.29.18.07.12.12.36.19.49.07.14.12.45.23.29.9-1.31,1.36-.11,2.07-.32.25-.08.33.63.81-.54.07-.17.16-.14.17.04.02,1.54.69.53.98,1,.14.25.57-.48.42.75-.02.16.09.06.16-.01.12-.12.31-.49.39-.45.21.12.26.84.57.51.38-.41.55-.14.79-.1.14.02.11.6.2.77.09.16.25.1.38.14.18.06.44-.09.53.23.09.33.64-.84.56.05-.06.68.49-.38.71-.45.11-.03.15.13.19.29.03.12-.04.52.03.51.16-.02.21.25.54-.21.23-.31.17.4.28.54.11.14.28.13.43.18.14.05.21.34.45.12,1.04-.97,1.35,0,1.99.09.16.02.51-.3.2.75-.05.19.02.24.11.15,1.16-1.16,1.24.2,1.96.07.52-.09,1.17-.44,1.51-.12.33.32.58.78,1.2.51.51-.23,1-.41,1.16,0,.15.4,1.51-1.35.89.41.3.16.62.29.87.53.21.2.71-.06.39,1-.11.38.06.46.34.22.9-.78,1.02-.32,1.02.36,0,.16.38-.24.48-.21.29.1.59.2.75.49.48.87,1.91.33,2.65.85.13.09.8-.5.78-.23-.13,1.66,1.48,1.05,1.66,2.26.21,1.7,1.88,1.99,2.68,3.2.11.16-.43.94-.18.82.79-.37.49.33,1.1.1,1.12-.41.84.4,1.32.57.36.13-.02.83,1.17.34.17-.07.22.04.13.18-.34.55-.09.65.24.74.32.09.72.15.62.52,1.77.12,1.42,1.63,2.12,2.56.1.15.45.2.67.32.11.06.33.1.26.2-.53.75-.5,1.34-.31,1.88.17.56.45,1.15.3,1.78-.11.42-.52.83-.67,1.21-.15.38.18.84-.79,1.11-.3.08-.17.31-.08.48.24.47-.18.81-1.04.87-.86.06-2.14-.15-3.69-.57-1.12-.3-1.17-.42-1.57-.61-.78-.37-1.28-.58-1.16-.73.07-.11.45-.25-.65-.42-.18-.03-.14-.07,0-.09.99-.19.2-.43.85-.69.49-.24.33-.4.51-.62.13-.2-.47-.2.47-.63.32-.15-.57-.07-.65-.16-.19-.22-.31-.45-.3-.75.05-.48-.43-.73-.88-.93-.48-.2-.94-.35-1.01-.81-.74.18-.95,0-1.08-.28-.15-.26-.23-.59-.69-.57-1.1.07-1.26-.73-2.05-.93-.16-.04-.23-.14-.08-.5.09-.24.19-.49.13-.56-.23-.27-.61-.41-.81-.74-.11-.18-.73.26-.04-.91.1-.16.01-.2-.12-.1-1.09.86-.86,0-1.24-.07-.14-.03-.21-.14-.03-.62.19-.52-.04-.61-.46-.31-.31.23-.41.17-.56.2-.64.1-.27-1.33-1.58-.23.6-1.32.08-1.1-.31-.95-1.51.59-1.78-.73-2.74-.99-.23-.06-.12-.71-.26-.93-.15-.23-.4-.3-.64-.37-.13-.03-.04-.52-.63.35-.04.06-.09.1-.09.08-.04-.22.02-.63-.13-.63-.14,0-.57.58-.77.69-.23.13-.38.08-.52.03-.14-.05-.38.09-.07-.79-.62.98-.51.39-.68.4-.16.01-.26-.1-.38-.16l-.42-.2c-.14-.07-.24-.22-.43-.18-.26.05-.62.35-.86.37-.25.03-.45-.07-.6-.26-.19-.25-.3-.69-.48-.98-.07-.12-.28.11-.53.44-.34.44-.96,1.48-.55-.04.08-.3-.08-.27-.22-.11-1.13,1.29-1.2-.17-1.91.05.1-1.23-.46-.64-.88-.43-.62.3-1.16.33-1.42-.48-.27-.87-.88-.6-1.3-1-.12-.11-.38.27-.22-.8.04-.24-.09-.21-.19-.07-.69.98-.99.59-1.24-.23-.13-.43-.49-.05-.81.31-.49.52-.77,0-1.13-.07.09-1.33-.29-.03-.47.52-.24.73-.36.85-.48.85-.16,0-.28-.26-.55.56-.14.42-.29.29-.31-.17-.03-.63-.11-.35-.26.04-.17.47-.14-.77-.3-.73-.17.04-.4.7-.42-.7,0-.12-.05-.11-.08-.01-.4,1.38-.53-.67-.87-.07-.39-.8-.85-.87-1.27-.79-.42.08-.8.31-1.23.08-.33-.18-.88-1.13-1.07-.44-.19.71-.44.89-.74.95-.3.05-.64.02-.86.24-.07.1.16.68-.56-.47-.1-.16-.14-.12-.08.04.47,1.17.2.86-.43.29-.15-.14-.21-.07-.04.21.48.79.2.52.12.56-.09.04-.71-.5-.46-.1.55.83-.23.04-.43-.02-.12-.04,0,.2.05.35.03.07.28.39.2.33-.96-.66.09.64-.38.45-.1-.03-.11.02-.24-.04-1.46-.59-1.54-.5-1.25.45-1.49-.71.46.71-.7.25-.44-.15-.41.02-.15.23.57.45.62.56.52.66-.09.09-.3.17-.14.34.07.06-1.02-.11-.15.13.33.08-.66,0-.64.08.03.09-.58.17.49.32.44.05.07.11.17.17.13.06-.3.17.61.18.49,0,.51.05.08.14-.88.18-.93.32-.65.35.28.04.85-.03,1.16-.06.2-.02.37-.06.12.06-.35.16-.79.44-.27.28.91-.31.56-.12.65-.09.14.03.05.2.22.2.17-.03-.05.39.61-.21.3-.36.7-.61-.03.66-.08.14.46-.47.51-.44.35.18.72.38,1.09.73.08.08-.54,1.37.13.44.72-1-.38,1.15.45-.07.12-.18.2-.1.18.05-.21,1.66,1.01.95,1.5,1.69.11.17.6-.23.12.92,1.17-.9.13,1.75,1.6.08.08.47.94-.36.45,1.06-.08.23.19-.02.13.19-.21.72,1.02-1.15.63-.04-.22.64.19.42.33.55.14.12.3.18.46.27l.51.29c.17.09.3.27.52.27.45,0,1.21-.6,1.39-.09.02.05.16-.06.29-.25,1.02-1.61.69-.59.54-.04-.12.46-.14.7-.03.75.3.14.63.22.87.48.14.15.61-.3.23.85-.12.36.06.35.26.16.93-.93.98-.09,1.44-.07.21,0,.36.13.51.24.12.09.6-.59.39.17,1.28-1.11,1.49.11,2.21.22.7.12,1.3.47,1.91.78.15.08.55-.41.23.83-.06.24.06.27.19.05.34-.61.53-.92.31-.02-.04.17.12.01.23-.14.31-.42.4-.33.38.16-.02.38.05.64.25.43.52-.57.97-1.06.83.29-.02.17.35-.61.4-.55.19.24.64-.34.57.71-.03.43.21.18.3.32.16.25.56-.36.67.09.11.45.45.22.69.29.24.07.48.12.71.19l.71.18c.24.06.48.12.72.17l.72.15.72.15c.17.04.29.21.38.73.21,1.34.82,1.28,1.6.34.06-.07.1,0,.15,0,.64.09,1.29-.07,1.85.31.25.17.48.76.75.67.17-.06.34.15.52-.65.14-.66.33.48.46-.71.05-.43.18-.42.26-.07.28,1.17.51.54.74.62.28.09.53.02.76-.1.11-.06.31.3.22-.67-.05-.48.13-.19.31.19.27.58.38.43.41.14.06-.62-.03-.71.43-.11.06.07.08.06.11.05.23-.08.72.17.62-.48-.1-.53-.01-.65.1-.77.05-.05-.3-.5.6.38.13.13.15.08.05-.04-.88-1.07-.3-.61-.25-.72.06-.11-.85-.76-.62-.62.26.11.04-.02.09.01.06.02.1.04.14.05.23.07.41.12.61.18.74.2,1.67.44,3.28.87,2.75.74,3.31,1.02,3.71,1.73.4.76.18,1.39-.14,1.85-.33.48-.76.81-.93,1.29Z" class="cls-1"></path>
        <path d="m820.38,402.6c-8.64-4.2-15.66-7.71-22.78-10.97-1.11-.51-2.62-.51-4-1.17-5.51-2.66-11.46-4.8-16.46-8.01-5.45-3.53-11.29-6.26-17.09-8.38-2.75-1-5.42-2.13-8.05-3.3-2.64-1.15-5.27-2.32-7.94-3.43-1.79-.75-3.58-1.4-5.2-2.95-1.18-1.13-3.73-2.34-6.03-2.31-.44,0-1.17-.53-1.72-.86-.59-.36-1.17-1.06-1.69-1.15-5.79-.91-10.74-4.3-16.16-6.26-1.35-.48-2.63-1.49-4.14-1.06-.39.11-1.69-.4-1.98-.77-.77-.99-1.76-1.54-3.02-2.07l-8.19-3.43-8.21-3.39c-3.16.08-5.97-1.7-8.84-2.88-2.16-.88-4.14-2.16-6.21-3.26-2.09-1.11-4.73-1.3-6.39-3.18-.26-.3-1.23-.32-1.84-.55-2.77-1.01-5.78-1.76-8.2-3.18-1.24-.72-2.49-1.45-3.81-1.97l-51.23-20.36c-1.48-.59-2.85-1.3-4.7-1.24-1.44.04-4.14-1.03-5.1-2.05-1.55-1.64-3.49-2.02-5.29-2.81-3.33-1.46-6.77-2.69-10.08-4.17-1.97-.88-4.43-1.2-5.69-3.12-.12-.18-.75-.44-1.02-.42-2.69.23-4.44-1.62-6.59-2.69-1.56-.78-3.18-1.43-5.17-1.6-1.94-.15-4.82-1.29-6.15-2.53-1.78-1.68-3.82-2.24-5.79-3.08-5.8-2.52-11.62-4.92-17.41-7.56l-17.26-7.84c-5.45-2.46-11.26-3.91-16.55-6.85-1.26-.7-2.88-.92-3.68-2.28-.16-.28-1.25-.66-1.76-.65-1.83.04-3.18-.93-4.86-1.75-7.56-3.7-15.11-7.72-22.92-10.52-6.08-2.17-11.69-5.07-17.53-7.58-1.95-.84-3.63-2.29-5.53-3.31-1.84-.99-3.79-1.84-5.72-2.67-1.15-.5-2.18-1.26-3.6-1.13-.76.07-2.44-.59-2.97-1.18-1.78-1.99-4.33-2.73-6.63-3.82l-19.76-9.25c-1.61-.77-3.64-1.13-4.63-2.81-.14-.23-1.21-.34-1.85-.52-.68-.19-1.6-.27-2-.63-3.66-3.28-8.5-4.64-12.84-6.72-10.52-5.06-21.19-9.81-31.68-14.91-2.94-1.43-5.92-1.78-8.77-3.17-2.75-1.34-5.57-2.55-8.31-3.91-1.94-.97-4.23-1.48-5.58-3.36-.37-.51-1.8-1.17-2.5-1.17-2.66-.02-4.82-1.66-7.19-2.58-.33-.13-.66-.27-.98-.42l-.88-.42-1.33-.68c-.89-.44-1.85-.83-2.52-.7-.06.24-.11.48-.15.74-.06.4-.27.6-.55.82-.28.21-.62.46-.86.79l-.61.87-.78,1.19c-.59.92-1.16,1.85-1.71,2.79-.53.9-.71,1.99-1.23,2.9l-6.01,10.51-5.69,9.76-1.54,2.59c-.14.13.07.16.16.23l.34.18.69.37,1.47.79,9.73,5.26c7.25,3.87,14.56,7.66,21.75,11.63,2.7,1.49,6.07,2.28,7.88,4.96,2.94.51,4.89,2.17,6.6,4.24.25.3,1.24.33,1.89.53,2.03.62,4.49.17,5.75,2.73.05.09.34.16.49.27,1.58,1.1,3.55.21,5.23,2.24,1.05,1.26,3.35,2.16,5.13,3.15,1.84,1.02,3.69,2.07,5.6,2.9,1.97.87,3.7,2.64,6.08,2.45.39-.03,1.39,1.48,2.25,1.86,4.41,1.94,8.27,5.23,13.17,6.08,1.12.2,2.63,1.01,3.51,1.8,3.2,2.86,6.92,4.13,10.9,5.71,5.23,2.09,10.67,4.64,14.86,8.52.89.83,1.24,1.29,2.54,1.33.86.02,2.03.71,3.01,1.21,10.91,5.54,21.88,10.97,32.83,16.43,2.99,1.46,5.24,3.92,8.51,5.02,1.35.45,2.56,1.73,4.06,1.33.21-.06.77.13.98.32,3.16,2.86,7.55,3.17,11.01,5.37.74.47,1.39,1.04,2.12,1.52.74.5,1.55,1.21,2.3,1.38,6.28,1.39,11.61,5.19,17.49,7.57,2.01.8,3.87,2.4,6.14,2.09.34-.05,1.2.37,1.5.7,2.71,2.92,6.87,3.6,10.18,5.57,1.7,1.02,4.04,1.2,5.14,3.03.14.23.91.45,1.4.57.84.21,1.76.19,2.5.54,2.05.99,4.03,2.64,6.02,3.09,2.46.56,4.51,1.72,6.69,2.66,1.24.55,2.26,1.6,3.49,2.27,1.15.63,2.44,1.08,3.67,1.61,1.75.76,3.66,1.35,5.22,2.32,1.61,1,3.49.41,5.05,2.04,1.2,1.24,3.32.87,5.03,1.46.84.29,1.66.8,2.43,1.28.59.36,1.03,1,1.62,1.22,1.35.5,2.53,1.26,4.17,1.37,1.12.08,2.56,1.49,3.92,2.2,1.35.7,2.79,1.27,4.19,1.9,1.4.63,2.81,1.53,4.19,1.85,6.08,1.39,11.44,4.71,17.08,7.2,1.45.64,3.3,1.02,4.08,2.59.14.28.95.68,1.42.77,5.95,1.13,10.94,4.86,16.49,7.04,3.96,1.56,7.97,2.84,11.81,4.83,3.73,1.94,7.51,4.1,11.38,5.38,3.19,1.06,6.33,2.13,9.14,3.8,2.76,1.64,6.48,1,8.49,4.02,2.93,1.41,5.89,2.76,8.78,4.25,2.43,1.25,5.16,2.03,7.1,4.15.7.77,2.42,1.56,3.53,1.69,3.57.44,6.41,2.16,9.28,4.17.68.47,1.84.42,2.7.81,2.61,1.17,5.26,2.32,7.77,3.68,3.74,2.04,7.65,3.62,11.57,5.17,3.92,1.55,7.87,3.02,11.71,4.76,1.42.65,3.34.56,4.5,1.34,7.07,4.72,15.48,6.87,22.78,10.81,2.69,1.5,5.45,2.74,8.24,3.97,1.39.61,2.8,1.2,4.2,1.77,1.4.52,2.77,1.06,4.21,1.53,5.69,1.95,11.56,3.62,17.36,5.51,1.51.5,2.85,1.85,3.64,1.81,2.47-.13,4.85,1.29,6.9,1.25,3.69-.09,6.84,1.59,10.26,2.27,2.49.49,4.91,1.96,7.5,1.38.38-.08,1.21.19,1.61.45,3.27,2.17,7.31,1.49,10.76,3.1l.67.06.46-.02c.3,0,.6,0,.88.02.59-.03,1.16-.04,1.74-.05.59-.09,1.15-.03,1.74-.17.29-.04.59-.08.89-.1l.9-.19c1.21-.21,2.46-.66,3.71-1.15.61-.32,1.23-.58,1.83-.94.59-.39,1.2-.71,1.74-1.19.33-.26.61-.57.88-.89.26-.35.5-.7.77-1.03.28-.32.52-.79.85-.96,2.43-1.17,4.36-3.26,5.83-5.55,1.48-2.3,2.53-4.8,3.51-7.13.61-1.53,1.42-3.02,1.64-4.55.1-.4.05-.76.06-1.14.02-.39-.02-.74-.05-1.09-.02-.35.01-.72.01-1.05,0-.33.13-.72.23-1.08.07-.23,0-.52-.12-.82-.11-.31-.38-.54-.54-.77-1.01-1.13-1.64-2.18-2.1-3.53-.46-1.29-.62-2.84.06-4.31.49-1.05,1.43-.59,2.64-.38,2.25.55,4.54,1.86,5.94,4.5.24.52.53,1.03.71,1.59.18.55.37,1.11.58,1.64.32,1.09.79,2.12,1.41,3.07.22.32.32,1.38.15,1.93-.12.49-.22.97-.29,1.46-.09.48-.21.96-.29,1.44-.13.97-.37,1.91-.54,2.87-.21.94-.47,1.86-.76,2.73-.35.85-.68,1.7-1.18,2.41-1.43,2.21-2.48,4.32-3.96,6.25-.63.8-1.13,1.72-1.78,2.53-.61.84-1.39,1.55-2.42,1.99-.34.15-.7.71-1.09,1.39-.38.68-.84,1.44-1.36,1.93-2.4,2.35-5.18,4.42-8.3,5.78-2.37,1.02-4.81,1.87-7.36,2.39-2.56.48-5.24.57-7.88.14-1.37-.22-2.53-.51-3.71-.79l-3.56-.86c-2.37-.59-4.73-1.24-7.06-2.01-7.14-.54-13.81-3.78-20.74-5.07-8.4-1.57-16.39-4.44-24.61-6.86-1.69-.49-3.02-1.01-4.37-1.91-.89-.57-1.77-1.22-2.75-1.62-3.72-1.58-7.57-2.9-11.21-4.62-1.96-.9-4.47-1.18-5.7-3.17-.17-.27-1.07-.64-1.53-.65-3.77-.18-6.95-2.5-10.39-3.83-1.31-.51-2.54-1.1-3.72-2.18-1.29-1.16-3.68-2.19-5.46-2.47-1.34-.21-2.4-.68-3.59-1.1-4.92-1.74-9.21-5.29-14.49-5.94-1.82-2.42-4.99-3.42-7.58-4.26-9.95-3.24-18.92-8.61-28.38-12.87-2.28-1.03-4.29-2.68-6.53-3.89-2.35-1.27-4.79-2.39-7.23-3.5-1.3-.59-2.59-1.74-4.05-1.28-.11.03-.36-.03-.49-.11-1.3-.82-2.52-1.84-3.9-2.42-1.24-.52-2.66-.42-3.97-.84-1.56-.5-3.1-1.23-4.62-1.93-1.46-.68-3.12-1.22-3.9-2.62-1.64.49-3.07-.84-4.55-1.45-1.41-.58-2.76-1.31-4.14-1.97l-4.65-2.24c-1.55-.74-3.08-1.58-4.66-2.21-2.18-.86-4.44-1.48-6.61-2.38-2.28-.95-4.54-2.04-6.73-3.2-2.74-1.45-5.37-3.09-8.09-4.59-1.12-.62-2.23-.83-3.54-.99-1.73-.2-4.14,0-5.43-2.32-.26-.46-1.66-1.01-2.51-1.18-3.34-.66-6.42-1.98-9.46-3.42-3.03-1.45-6.02-3.05-9.16-4.14-2.9-2.55-6.44-3.27-10.13-4.5-5.4-1.79-11-4.01-15.82-6.85-5.05-3.1-10.48-5.08-15.64-7.72-1.45-.74-3.25-1.06-4.06-2.61-.19-.35-1.33-.8-2.01-.94-4.72-.96-8.73-3.19-12.76-5.88-2.13-1.42-4.9-2.21-7.61-3.02-4.05-1.25-7.97-3.64-11.95-5.55-1.14-2.02-3.07-1.45-4.19-1.36-1.51.12-2.67-.28-4.08-.94-1.81-.85-3.48-1.9-5.63-2.01-1.1-.05-3.08-1.14-3.85-2.03-1.04-1.2-1.65-1.18-3.03-1.4-1.62-.26-2.55-2.08-4.35-2.9-1.92-.87-4.44-1.36-5.5-3.43-.09-.18-.69-.46-1-.49-4.15-.45-6.71-4.04-10.48-5.22-4.86-3.31-10.09-5.98-15.36-8.55-5.27-2.59-10.6-5.07-15.69-7.96-4.2-2.37-8.08-5.5-12.59-7.12-9.49-3.37-17.99-8.78-26.96-13.17-1.9-.93-4.35-1.5-5.43-3.57-.15-.29-1.02-.72-1.47-.77-3.38-.37-5.93-2.14-8.37-4.35-.59-.54-1.88-1.18-2.45-1.11-1.6.2-2.79-.84-4.04-1.52-1.51-.82-3.14-2.59-4.26-2.65-2.4-.13-2.96-1.69-4.35-2.63-.85-.58-1.98-.88-2.99-1.24-.48-.17-1.23-.11-1.44-.33-2.44-2.58-6.14-2.66-8.86-4.62-.58-.42-1.27-.76-1.82-1.2q-6.24-5.01-15.36-8.99c-1.62-2.73-5.58-2.1-7.59-4.59-.74-.91-2.61-1.8-3.95-2.14-1.47-.38-2.88-.91-4.24-1.52-.68-.31-1.35-.64-2.02-.98l-1.23-.65-1.5-.83c-1.97-1.11-3.95-2.21-5.92-3.32l-3.08-1.67-.39-.21c-.11-.02-.05-.09,0-.15l.11-.19.44-.74.85-1.48c.46-.83,1.23-1.59,1.88-2.35.66-.77,1.19-1.53,1.38-2.69.08-.44.79-1.3,1.58-2.19.19-.22.4-.45.6-.68.19-.21.3-.3.45-.47.27-.29.52-.59.69-.88.99-1.7,2.59-3.14,2.71-5.37.05-.91,1.27-2.22,1.89-3.38.84-1.59,2.13-2.9,2.34-4.9.11-1.09,1.31-3.05,2.26-3.78,1.97-1.51,3.18-3.39,4.12-5.38.23-.5.45-1,.66-1.51.06-.15.08-.21.18-.43l.29-.6.58-1.23c.78-1.65,1.61-3.39,2.51-5.14.67-1.3,1.23-2.41,1.91-3.51.64.3,1.38.69,2.22,1.19,1.55.93,3.27,1.97,4.85,2.83.8.43,1.56.81,2.29,1.13.36.16.71.3,1.05.42.24.07.42.1.62.12,2.76.27,4.87,1.68,7.2,2.7,4.03,1.77,7.95,3.79,11.98,5.54,4.61,1.99,8.93,4.51,13.91,5.86,2.67.73,6.12,1.85,8.19,4.42.23.28,1.66.06,2.39.39,5.75,2.62,11.49,5.25,17.16,8.02,1.31.64,2.15,2.61,3.85,2.13,1.81-.51,2.19,2.33,3.88,1.49.25-.12,1.44.46,1.99.88,6.06,4.53,13.46,6.65,20.08,10.17,1.59.84,3.69,1.17,4.46,2.89,4.7.68,8.12,5.37,13.07,5.26,2.81,1.71,6.47,2.14,8.7,4.8.36.43,1.53.58,1.96,1.02,1.49,1.5,3.56,0,5.27,2.07.98,1.19,3.51,1.93,5.36,2.84,1.72.84,3.47,1.62,5.2,2.43l5.73,2.66c1.91.89,3.79,1.86,5.73,2.64,3.94,1.59,8.08,2.52,11.86,4.68.41.23,1.2.42,1.46.28,2.13-1.11,3.65.76,4.74,1.88.92.94,1.78,1.58,3,2.13,3.31,1.51,6.64,2.97,9.88,4.61,1.92.97,4.26,1.37,5.62,3.32.42.6,2.03,1.25,3.02,1.42,4.65.77,8.63,3.43,12.91,5.19,1.94.8,3.84,1.72,5.73,2.63,1.44.7,3.23.61,4.35,1.98,3.85.92,7.48,2.43,10.97,4.01,3.56,1.59,7.16,3.31,10.81,4.77,7.27,2.89,14.45,6.04,21.66,9.08,1.8.77,4.05,1.05,5.18,2.89.21.35,1.53.88,2.01.8,1.32-.2,2.25-.2,3.08,1.14.15.25,1.22.48,1.82.53,1.67.14,2.98.73,4.35,1.79,1.06.82,2.6,1.69,3.88,1.92,3.42.62,6.63,1.26,9.28,3.78.33.31,1.72-.04,2.4.28,2.66,1.24,5.69,1.72,8.02,3.75.95.83,2.71,1.19,4.04,1.85,2.3,1.14,4.81,1.4,7.17,2.76,2.39,1.38,5.27,2.19,7.94,3.24l8,3.17,8.01,3.17,8.01,3.17,8.01,3.19,8.01,3.19c1.86.77,3.54,1.6,5.23,2.82,4.32,3.13,10.2,5.3,17.69,7.3.54.14,1.06.43,1.6.65,6.93,2.82,13.93,5.55,20.65,8.77,2.95,1.4,5.74,3.23,8.84,4.49,2.03.82,3.9,1.85,6.22,1.98,1.93.12,3.81,2.19,6.23,1.95.89-.09,2.76.76,3.56,1.51,2.65,2.48,6.17,3.39,9.32,4.91,3.62,1.76,7.33,3.35,11.01,4.98,1.81.79,3.44,1.98,5.68,1.94,1.1-.02,3.13,1.28,4.27,2.26,1.77,1.52,3.85,2.35,5.88,2.99,4.36,1.37,4.35,1.29,8.08,3.85.45.31.96.56,1.47.8,5.02,2.39,9.96,5.24,15.1,7.01,4.28,1.5,8.25,3.4,12.27,5.32,1.6.76,3.69,1.16,4.49,2.95.11.26,1.03.68,1.49.73,3.95.4,7.27,2.79,10.73,4.5,3.37,1.65,6.94,2.18,10.26,4.13,3.11,1.83,6.49,3.28,9.75,4.91,4.95,2.47,5.68,3.67,4.11,6.74-1.29,2.54-2.81,2.47-7.05,1.04-8.98-3.03-17.01-8.1-24.02-11.14Z" class="cls-1"></path>
      </g>
    </g>
    <path d="m582.74,337.47c1.51.84,2.72,1.57,4,2.15.2.09.6-.13.84,0,.95.56,2.11.78,2.82,1.69.78.99,1.76,1.59,2.88,1.85,1.06.24,1.92.82,2.88,1.24.32.14.66.23.78.81.09.42.51.69,1.12.37.12-.06.2.12.27.22.08.11.09.39.21.37,1.32-.28,1.92.81,2.93,1.13.25.08.37.44.85.03.12-.1.35,0,.35.15,0,.41.14.57.36.69l2.81,1.52c.82-.42,1.17.16,1.66.43.37.2.61.63.9.96.3.33.93.12.96.9,0,.12.24.02.35.07.49.21,1.09.26,1.41.71.16.23.33.47.55.59,2.89,1.59,5.79,3.16,8.7,4.69.25.13.45.34.93.1.37-.19.84.04.88.45.06.66.47.63.77.82.55.36,1.16.59,1.71.95.32.22.88.08.82.91,0,.08.1.14.17.09.73-.45.8.29,1.14.58.24.21.52.35.99.19.46-.15.97.06,1.07.53.13.64.54.67.87.85,1.98,1.09,3.98,2.16,6.01,3.18.96.48,2.21.38,3.04,1.12.2.18.58.05.54.63,0,.12.2.16.34.08.48-.28.66.01.94.19,1.29.79,2.52,1.74,4.04,2.03,1.19.22,2.12.88,3.18,1.3.35.14.53.64.84.88.3.24.65.38,1,.53.21.09.34.33.73.05.21-.15.53-.06.56.17.1.76.63.76,1.03.98,1.14.63,2.32,1.19,3.47,1.81.28.15.74.04.7.75,0,.1.25,0,.39,0,.14,0,.37-.1.41.02.37,1.14,1.38,1.11,2.14,1.53,1.83,1.02,3.75,1.86,5.57,2.91.51.29,1.22.03,1.71.31.48.27,1,.46,1.47.75.33.2.83.12.86.88,0,.21.26.33.44.22.68-.4.96.12,1.41.23.55.14.88.77,1.68.39.22-.1.31.35.5.48.33.22.67.42,1.03.56.18.07.45-.07.63,0,1.37.49,2.75.96,4.08,1.54,1.35.6,2.66,1.28,3.98,1.93,1.33.64,2.68,1.24,3.97,1.96.48.27,1.25.06,1.32,1.1.7-.27.95.22,1.09.97.02.11.28-.06.42-.07.44-.05,1.16-.72,1.09.36,0,.04.06.02.09.05.25.28.9-.53,1.03.21.08.46.54.51.86.69.33.19.65.39,1.03.47.39.09.57.69,1.22.16.11-.08.14.51.3.55.86.2,1.37,1.2,2.52.76.26-.1.53.05.64.3.4.9,1.17.9,1.97,1.01,1.04.14,2.07.49,2.56,1.77.1.27.12.45.46.24.22-.14.42.01.59.1l5.98,2.76c.54.25.75,1.13,1.42,1.15.28,0,.39.46.84,0,.06-.06.18-.06.2,0,.38.95,1.46.34,2,.91.12.12.2.31.31.44.11.13.21.37.37.33,1.38-.32,2.16.76,3.28,1.04.38.1.61.62,1.23.09.09-.08.25,0,.27.12.24,1.08,1.19.76,1.72,1.25.27.25.83-.03.82.77,0,.1.16.09.26.08.18-.02.41-.18.54-.11.36.2.6.75,1.03.68.53-.09.86.19,1.26.35.23.09.31.49.51.67.18.16.43.21.65.31.31.14.69.17.92.45.24.29.79-.3.92.33.1.48.68-.03,1.01.03.16.03.28.18.4.31.09.11.1.38.21.4.25.06.42.29.8.11.26-.13.41.39.63.55.23.16.5.23.75.34.25.11.46.36.76.3,1.31-.27,2.15.61,3.2.95.27.09.68-.02.64.67,0,.12.14.2.24.16,1.32-.41,2.04.68,3.12.87.77.13,1.59.11,2.27.49.66.37,1.3.84,2.09.85.65,0,1.28.02,1.75.4.46.37,1.48-.61,1.57.61.54.23,1.09.42,1.61.69.44.23,1.01.16,1.2.93.07.28.39.4.65.28.83-.39,1.3.02,1.74.57.1.13.4-.09.56-.04.49.16.99.31,1.42.6,1.3.85,2.97.74,4.37,1.32.26.11.74-.25.92-.03,1.08,1.33,2.83,1.12,4.03,2.13,1.77,1.49,4,1.85,5.98,2.82.26.13.33.75.51.65.57-.3.86.27,1.33.06.83-.38,1.25.27,1.89.35.46.06.76.65,1.42.1.1-.08.24,0,.28.11.36.9,1.36.17,1.86.72,1.48-.34,2.47.68,3.72.98.18.04.42-.06.63-.09.11-.01.25-.08.3,0,.74,1.26,2.11,1.04,3.11,1.7.33.22.59.59.92.81.33.23.78.17.92.82.04.2.28.2.46.2.97-.02,1.16,1.34.49,3.12-.24.64-.43.62-.7.78-.53.32-.99.49-1.39.27-.31-.17-.6-.51-1.13,0-.09.08-.23,0-.28-.11-.35-.77-1.16-.58-1.54-1.17-.3-.45-.71-.52-1.05-.8-.29-.23-.76-.04-.87-.73-.04-.23-.55.13-.79.06-.56-.16-1.12-.34-1.63-.64-1.54-.9-3.53-.63-5.08-1.51-1.49.34-2.41-.89-3.74-.97-1.6-.1-2.91-.93-4.4-1.29-.31-.07-.53-.19-.7-.49-.11-.2-.23-.41-.4-.49-.66-.3-1.35-.51-1.99-.85-.34-.18-.91.05-.92-.81,0-.12-.17-.18-.28-.11-.89.5-1.34-.21-1.99-.37-.25-.06-.46-.18-.61-.55-.16-.4-.6-.55-1-.4-.3.11-.49.04-.73,0-.96-.11-1.54-1.24-2.75-.7-.11-.97-.77-.94-1.29-.94-2.02,0-3.52-1.25-5.3-1.84-.43-.14-.7-.65-1.1-.89-.41-.25-.87-.41-1.33-.56-.24-.08-.41-.45-.84.04-.03.04-.09.05-.11.03-.21-.2-.38-.53-.64-.59-.24-.06-.61.24-.87.24-.32,0-.61-.11-.89-.21-.27-.1-.61-.1-.61-.7-.48.54-.65.09-.94.02-.27-.06-.51-.21-.76-.32l-.85-.37c-.28-.12-.55-.3-.86-.36-.42-.08-.9-.02-1.32-.12-.44-.11-.85-.29-1.23-.53-.48-.3-.9-.72-1.36-1.05-.19-.14-.44-.06-.74.07-.4.18-1.04.67-1.02-.33,0-.2-.27-.26-.45-.21-1.48.41-2.29-.82-3.5-1.07-.32-.92-1.09-.79-1.8-.89-1.04-.15-2.07-.48-2.81-1.27-.78-.84-1.83-1.02-2.71-1.6-.25-.16-.64-.05-.61-.73,0-.16-.21-.21-.36-.17-1.04.27-1.71-.24-2.32-.99-.32-.39-.9-.35-1.46-.34-.84.02-1.47-.57-2.19-.9.02-.86-.56-.24-.86,0-.4.32-.63.3-.89.19-.33-.14-.59-.41-1.13-.1-.27.16-.62-.06-.68-.4-.08-.44-.24-.33-.56-.21-.38.14-.34-.65-.68-.76-.36-.12-.93.05-.89-.84,0-.08-.11-.12-.18-.08-.99.47-1.12-.93-1.91-.89-1.51-1.72-3.77-1.9-5.52-3.1-.73-.49-1.26-1.42-2.19-1.45-1.96-.06-3.35-1.33-5.03-1.97-.36-.13-.91,0-.88-.86,0-.12-.16-.19-.27-.13-.83.42-1.23-.03-1.54-.72-.07-.17-.31-.26-.47-.13-.45.39-.6.07-.83-.05-.27-.15-.43-.76-.71-.59-.61.36-.52-.33-.74-.56-.14-.14-.39-.09-.6-.1-.1,0-.31.17-.33.09-.25-.87-1.21-.25-1.63-.76-.09-.11-.22-.16-.3-.28q-.88-1.42-2.68-1.79c-.01-1.09-1.16-.05-1.31-.95-.06-.33-.42-.44-.72-.37-1.33.3-2.02-.77-3.09-1.02-.22-.05-.09-.71-.58-.37-.18.13-.26-.55-.49-.64-.33-.13-.51-.61-1.1-.2-.24.17-.43-.16-.67-.21-.32-.08-.5-.44-1.03-.11-.29.18-.66,0-.73-.31-.29-1.31-1.39-.81-2.25-.82-.26,0-.45.01-.6-.24-.21-.35-.49-.82-.86-.66-.67.28-.97-.12-1.39-.29-.73-.3-1.4-.74-2.14-1.03-.85-.32-1.53-.97-2.58-.92-.56.03-1.26-.03-1.35-1.04,0-.11-.42.22-.55.16-1.03-.48-2.05-.98-3.03-1.55-.23-.13-.1-1.02-.62-.52-.56.53-.16-.87-.74-.19-.09.1-.29-.02-.36-.15-.77-1.42-2.32-1.4-3.41-2.22-.26-.2-.75-.05-.64-.82-1.1.35-1.15-1.56-2.45-.77-.42-.46-1.3-.14-1.4-1.18-.02-.17-.29-.07-.33-.23-.12-.55-.93.53-1-.28-.04-.47-.56-.47-.88-.66-.3-.18-.61-.32-.91-.48l-1.01-.52c-.34-.17-.65-.4-1.01-.51-.74-.24-1.65-.11-2.24-.66-.06-.06-.24-.04-.33.07-.76.88-.81.14-.89-.27-.07-.35-.18-.55-.39-.65-.59-.29-1.18-.56-1.73-.93-.32-.22-.86-.09-.85-.89,0-.25-.3-.35-.53-.29-1.07.28-1.62-.51-2.4-.8-.36-.13-.68-.33-1.01-.53-.25-.15-.73.15-.76-.4-1.66.15-2.65-1.04-3.96-1.61-1.3-.56-2.52-1.28-3.74-1.98-.31-.18-.82-.05-.74-.86.01-.16-.21-.27-.35-.17-.37.26-.61.38-.56-.21.01-.11-.22-.1-.36-.05-.4.13-.61-.02-.74-.41-.1-.3-.32-.56-.6-.53-.74.09-1.42.13-1.59-.85-.02-.12-.44.23-.55.14-.42-.34-1.09-.23-1.26-1.01-.07-.32-.44-.3-.64-.49-.35-.32-.93-.16-1.25-.6-.32-.44-.88-.53-1.33-.78l-1.36-.74-1.36-.74-1.36-.74-1.36-.74-1.36-.74c-.31-.18-.57-.41-.74-.85-.45-1.11-1.49-1.56-2.99-1.69-.11,0-.18-.09-.27-.14-1.18-.64-2.43-1.16-3.5-1.98-.47-.36-.82-.94-1.37-1.18-.36-.16-.64-.44-1.21-.21-.48.19-.55-.63-1.22-.19-.25.16-.56-.03-.62-.3-.2-.91-.94-.9-1.46-1.25-.6-.41-1.24-.74-1.9-1.04-.32-.15-.52-.53-1.12-.19-.29.16-.57-.21-.68-.55-.17-.52-.56-.65-.96-.7-.88-.09-.9-.03-1.39-.8-.06-.09-.15-.14-.24-.19-.87-.49-1.63-1.22-2.65-1.37-.85-.13-1.55-.49-2.26-.87-.28-.15-.77-.03-.64-.82.02-.11-.14-.19-.26-.15-.98.39-1.4-.34-2.02-.66-.59-.31-1.46-.03-1.98-.51-.49-.45-1.13-.66-1.7-.98-.86-.49-.83-.98.17-2.77.83-1.48,1.22-1.68,2.09-1.6,1.84.16,3.05,1.47,4.36,1.95Z" class="cls-3"></path>
    <path d="m607.88,337.48c1.03.77,1.84,1.44,2.74,1.98.14.08.52-.13.68,0,.65.49,1.55.67,1.94,1.49.42.9,1.12,1.42,1.98,1.62.82.18,1.4.68,2.1,1.03.24.11.5.18.5.7,0,.38.3.62.85.28.11-.07.14.1.19.19.05.1,0,.36.11.33,1.11-.35,1.42.65,2.19.86.19.05.24.38.68-.03.11-.11.29-.03.26.11-.06.39.03.53.19.62.69.39,1.36.81,2.05,1.21.72-.46.93.05,1.29.26.27.16.41.54.6.83.2.29.73.03.66.76-.01.12.19,0,.28.04.37.15.85.14,1.05.54.1.2.21.41.38.5,2.15,1.22,4.32,2.38,6.52,3.51.19.1.33.27.74-.01.32-.22.67-.06.66.33-.01.62.32.54.55.69.41.28.88.43,1.29.7.24.16.7-.03.59.76-.01.08.07.12.13.07.62-.51.62.18.87.41.18.17.39.27.78.06.38-.2.78-.07.81.38.05.59.38.57.63.7,1.51.79,3.03,1.56,4.58,2.26.74.33,1.74.07,2.36.67.15.14.46-.03.39.53-.02.11.15.12.27.03.41-.33.53-.07.74.06.98.59,1.89,1.34,3.09,1.41.93.06,1.63.57,2.46.83.27.09.38.54.61.73.22.19.5.28.77.37.16.06.25.27.58-.05.18-.17.43-.12.44.09.03.71.45.64.76.8.87.45,1.78.85,2.64,1.31.21.11.59-.05.5.63-.01.09.2-.04.31-.05.11-.02.3-.14.32-.03.2,1.04,1.02.89,1.59,1.21,1.39.76,2.85,1.35,4.22,2.14.38.22.98-.11,1.34.11.36.21.76.34,1.11.57.25.16.66.03.61.75-.01.2.18.28.33.17.59-.45.76.02,1.11.08.43.08.63.65,1.31.21.18-.12.21.31.35.41.24.18.49.33.77.43.13.05.37-.11.5-.07,1.05.34,2.12.65,3.12,1.07,1.03.43,1.99.98,2.99,1.48.99.5,2.01.95,2.97,1.52.36.21,1-.05.93.93.59-.31.74.13.76.83,0,.1.23-.08.34-.1.36-.08,1.01-.78.84.25,0,.04.05.02.06.04.17.24.78-.58.8.11.01.43.38.44.61.59.24.16.48.32.77.37.3.05.37.61.95.06.09-.09.05.47.18.5.66.13.95,1.04,1.92.53.22-.12.42,0,.48.24.21.83.83.76,1.46.8.82.06,1.6.31,1.84,1.48.05.25.05.42.34.19.19-.15.33-.02.47.04l4.44,2.19c.4.2.46,1.03.99.99.22-.01.26.41.67-.06.06-.07.15-.07.16-.02.19.87,1.12.22,1.49.72.08.11.12.28.19.39.07.12.12.34.26.29,1.14-.41,1.64.56,2.5.74.29.06.41.55.96,0,.08-.08.19-.02.2.1.06,1.02.85.64,1.22,1.07.19.22.67-.09.57.67-.01.1.12.08.2.06.14-.03.35-.2.44-.14.26.17.39.68.74.57.43-.13.66.12.96.24.17.07.19.45.33.6.13.14.32.17.48.25.23.11.53.11.68.36.16.26.66-.34.7.25.03.45.55-.09.8-.06.12.01.2.14.28.27.06.09.03.35.12.37.19.04.3.24.63.04.22-.14.28.34.45.47.16.13.37.18.56.27.19.09.33.31.57.23,1.07-.35,1.63.42,2.43.68.2.07.53-.07.44.6-.02.12.09.18.18.14,1.09-.51,1.55.49,2.38.58.6.06,1.25-.03,1.75.28.48.3.95.7,1.57.64.51-.05,1.01-.09,1.35.23.33.32,1.22-.71,1.18.46.4.17.82.31,1.2.52.32.18.78.07.86.8.03.26.27.35.48.21.69-.44,1.02-.09,1.31.4.07.12.32-.13.44-.09.37.12.75.21,1.07.44.95.69,2.28.41,3.33.83.19.08.6-.32.72-.12.74,1.19,2.12.84,2.98,1.68,1.28,1.26,3,1.37,4.48,2.1.19.1.21.69.36.58.46-.34.66.16,1.03-.09.67-.46.96.11,1.45.11.36,0,.55.54,1.1-.06.08-.09.18-.03.21.07.23.83,1.05.01,1.4.49,1.17-.5,1.87.4,2.83.52.14.02.33-.11.49-.17.08-.03.2-.11.23-.03.52,1.12,1.59.74,2.34,1.24.25.17.44.49.68.67.25.18.6.06.68.68.03.19.21.16.35.14.75-.14.86,1.15.29,2.96-.21.66-.35.65-.57.85-.42.38-.78.6-1.09.44-.24-.12-.45-.42-.88.13-.07.09-.18.03-.22-.07-.25-.71-.89-.42-1.17-.94-.22-.4-.53-.42-.79-.64-.22-.19-.59.06-.65-.6-.02-.22-.44.19-.62.16-.44-.08-.87-.19-1.25-.41-1.16-.71-2.73-.23-3.9-.91-1.19.48-1.85-.58-2.89-.51-1.26.08-2.23-.6-3.38-.8-.24-.04-.41-.13-.52-.41-.08-.18-.16-.37-.28-.43-.5-.23-1.03-.35-1.51-.62-.26-.14-.72.14-.67-.69,0-.12-.12-.15-.21-.08-.74.57-1.04-.08-1.54-.18-.19-.04-.35-.13-.43-.48-.09-.37-.43-.48-.75-.3-.25.14-.39.08-.57.08-.75-.02-1.12-1.04-2.12-.4-.01-.92-.53-.83-.95-.78-1.6.19-2.67-.91-4.03-1.32-.33-.1-.5-.57-.79-.77-.3-.21-.65-.33-1-.43-.19-.06-.28-.4-.67.11-.03.04-.07.05-.09.04-.15-.18-.25-.47-.45-.51-.18-.04-.5.28-.72.31-.25.03-.47-.05-.68-.13-.21-.08-.48-.04-.42-.62-.43.56-.53.14-.75.1-.21-.04-.38-.16-.57-.24l-.64-.29c-.21-.1-.41-.24-.65-.27-.33-.04-.72.06-1.04,0-.34-.07-.65-.21-.93-.41-.35-.25-.64-.62-.97-.91-.14-.12-.34-.03-.6.12-.34.2-.89.72-.77-.25.02-.19-.18-.23-.34-.17-1.22.5-1.73-.62-2.67-.76-.16-.86-.78-.66-1.34-.7-.81-.06-1.6-.31-2.1-1.01-.53-.74-1.34-.85-1.97-1.33-.18-.14-.51,0-.4-.66.02-.15-.14-.18-.27-.14-.86.33-1.34-.1-1.73-.78-.21-.36-.67-.28-1.12-.22-.67.08-1.11-.43-1.64-.69.11-.82-.42-.19-.69.06-.36.33-.54.33-.74.25-.25-.11-.43-.35-.89,0-.24.17-.48-.02-.5-.33-.02-.42-.16-.3-.43-.16-.32.16-.19-.59-.45-.68-.27-.09-.75.11-.61-.74.01-.08-.07-.11-.13-.07-.85.52-.78-.81-1.41-.71-1-1.54-2.78-1.54-4.05-2.54-.52-.41-.84-1.25-1.58-1.2-1.56.1-2.52-1-3.79-1.48-.27-.1-.73.08-.6-.75.02-.11-.1-.16-.2-.1-.71.46-.98.07-1.14-.56-.04-.15-.22-.23-.36-.08-.41.41-.49.12-.66.02-.2-.12-.26-.69-.5-.5-.53.4-.38-.27-.53-.47-.09-.12-.3-.05-.47-.04-.08,0-.27.19-.27.12-.1-.81-.94-.13-1.21-.59-.06-.1-.16-.13-.21-.24q-.55-1.27-1.95-1.47c.11-1.04-.92.05-.94-.79,0-.31-.29-.38-.53-.29-1.09.41-1.53-.56-2.35-.7-.17-.03,0-.67-.42-.29-.16.14-.15-.5-.32-.56-.25-.09-.34-.53-.86-.08-.21.18-.33-.11-.51-.14-.25-.04-.36-.37-.81,0-.25.2-.53.07-.55-.23-.1-1.21-1.03-.63-1.72-.56-.21.02-.36.06-.45-.17-.13-.31-.31-.73-.62-.54-.56.34-.76-.02-1.08-.14-.56-.21-1.04-.56-1.61-.76-.64-.22-1.13-.76-1.97-.59-.45.09-1,.11-.98-.84,0-.1-.35.25-.45.21-.78-.34-1.55-.7-2.28-1.13-.17-.1,0-.96-.45-.42-.49.57-.05-.81-.58-.09-.08.1-.23.01-.28-.1-.5-1.26-1.73-1.06-2.53-1.71-.19-.16-.59.04-.45-.7-.9.47-.8-1.34-1.9-.42-.3-.39-1.03.03-1.03-.94,0-.16-.23-.03-.24-.18-.05-.51-.78.62-.78-.14,0-.44-.42-.38-.66-.52-.22-.13-.46-.23-.7-.34l-.77-.37c-.26-.12-.49-.29-.77-.36-.57-.13-1.31.11-1.75-.34-.05-.05-.19,0-.27.11-.67.93-.66.24-.7-.14-.03-.32-.1-.5-.27-.57-.45-.2-.91-.38-1.32-.65-.24-.16-.68.03-.62-.73.02-.24-.21-.29-.4-.21-.88.4-1.26-.28-1.88-.45-.28-.08-.52-.23-.77-.37-.19-.11-.6.23-.59-.28-1.35.35-2.06-.67-3.07-1.04-1-.37-1.93-.91-2.87-1.43-.23-.13-.66.06-.53-.72.02-.15-.15-.23-.27-.12-.32.29-.53.43-.43-.14.02-.1-.17-.07-.29,0-.33.17-.49.05-.57-.3-.06-.27-.21-.5-.44-.44-.61.16-1.17.29-1.21-.63,0-.11-.38.27-.46.19-.31-.27-.86-.1-.94-.82-.03-.3-.33-.24-.48-.4-.25-.27-.74-.06-.96-.44-.22-.39-.66-.41-1.01-.6l-1.04-.55-1.03-.57-1.03-.57-1.03-.57c-.34-.19-.69-.37-1.03-.58-.24-.14-.41-.35-.51-.74-.24-1.02-1.02-1.35-2.24-1.35-.09,0-.14-.07-.21-.11-.88-.52-1.83-.93-2.6-1.63-.33-.31-.54-.82-.96-1.02-.27-.13-.46-.38-.96-.14-.42.2-.35-.56-.98-.12-.23.16-.46,0-.47-.25-.02-.84-.63-.79-1.01-1.1-.43-.36-.9-.65-1.38-.91-.24-.13-.33-.48-.89-.15-.27.16-.44-.18-.47-.5-.05-.48-.34-.59-.67-.62-.71-.07-.74-.02-1-.73-.03-.08-.09-.13-.16-.18-.63-.44-1.11-1.11-1.92-1.25-.69-.11-1.18-.47-1.69-.82-.2-.14-.63-.04-.35-.77.04-.1-.08-.18-.18-.14-.9.35-1.09-.34-1.53-.65-.41-.31-1.2-.09-1.52-.55-.3-.43-.77-.66-1.17-.98-.6-.49-.44-.93.86-2.51,1.08-1.3,1.46-1.47,2.15-1.37,1.46.19,2.08,1.43,3.03,1.87Z" class="cls-3"></path>
    <path d="m635.44,338.68c.69.35,1.23.69,1.84.89.09.03.37-.26.48-.2.42.25,1.05.16,1.26.78.23.68.66.97,1.25.93.56-.04.92.26,1.38.4.15.05.33.05.27.52-.05.34.14.48.56.06.08-.08.09.05.11.12.02.08-.04.32.04.27.82-.55.92.26,1.43.3.13,0,.11.3.48-.17.09-.12.21-.09.17.05-.1.36-.05.47.05.52.43.21.84.45,1.26.68.57-.55.64-.13.85,0,.16.09.2.42.29.63.09.22.5-.1.34.57-.03.11.13-.03.19-.02.23.07.57-.03.64.3.04.17.08.33.18.39,1.28.73,2.57,1.44,3.87,2.14.11.06.18.2.51-.12.26-.25.47-.15.39.2-.12.57.12.44.24.55.23.19.53.26.75.45.13.12.49-.13.25.61-.02.07.03.1.08.04.52-.55.39.08.51.25.09.13.22.19.52-.06.3-.24.54-.17.48.23-.08.53.15.47.29.55.87.52,1.75,1.02,2.67,1.45.43.2,1.17-.16,1.47.3.07.11.32-.08.16.44-.03.11.08.09.17,0,.34-.36.37-.14.49-.05.54.41,1.02.97,1.81.88.62-.07.99.3,1.49.43.17.04.15.45.27.59.11.14.28.19.45.23.1.03.12.21.4-.13.15-.18.31-.17.28.02-.11.65.19.53.36.63.5.29,1.04.52,1.54.81.12.07.41-.14.23.51-.02.09.14-.06.22-.1.08-.04.23-.18.22-.07-.04.93.53.66.86.86.8.49,1.7.77,2.5,1.27.22.14.67-.27.88-.13.21.13.46.18.65.33.14.1.43-.1.3.58-.04.18.08.23.2.09.45-.52.5-.13.73-.14.28-.01.34.48.84-.06.14-.15.1.24.18.31.14.12.29.21.46.25.08.02.26-.17.34-.16.65.1,1.32.16,1.94.34.63.19,1.19.49,1.82.75.62.26,1.26.47,1.84.81.22.13.68-.25.53.68.43-.41.48-.02.42.62,0,.09.16-.12.24-.16.25-.15.77-.92.53.07,0,.04.03,0,.04.02.08.19.59-.68.53-.05-.04.4.21.33.34.43.14.1.28.21.47.2.2,0,.18.49.64-.12.08-.1-.03.43.06.43.43,0,.51.79,1.23.15.17-.15.28-.07.29.13.03.73.46.56.88.49.55-.1,1.04.01,1.04,1.05,0,.22-.03.38.2.12.15-.17.23-.07.31-.04.9.43,1.79.86,2.67,1.31.24.12.14.88.51.76.15-.05.11.34.46-.16.05-.07.11-.09.11-.04-.02.77.72.04.89.44.03.09.03.24.06.34.03.1.02.3.12.23.84-.53,1.01.28,1.56.33.19.02.18.45.66-.13.07-.09.14-.04.12.06-.15.93.46.47.63.82.08.18.47-.17.25.55-.03.09.06.05.12.03.1-.05.27-.23.33-.19.14.12.13.57.39.44.32-.17.43.03.6.1.1.04.04.39.1.51.06.11.18.12.28.17.14.07.34.04.39.25.05.22.52-.39.42.14-.08.41.39-.14.55-.14.08,0,.11.11.13.21.02.08-.05.32,0,.33.12.02.15.19.42-.04.18-.16.12.28.2.38.08.1.21.13.32.19s.15.25.34.15c.8-.44,1.01.21,1.5.36.12.04.38-.12.16.5-.04.11.02.15.09.11.85-.57.93.3,1.48.31.39,0,.85-.14,1.11.1.26.23.48.56.91.44.36-.1.71-.18.85.1.15.27.99-.75.68.33.23.13.48.22.68.39.17.14.51,0,.38.66-.04.24.1.3.27.16.57-.46.71-.16.78.27.02.1.25-.14.32-.11.22.08.45.14.6.33.46.57,1.41.24,2.01.56.11.06.48-.33.51-.16.19,1.05,1.21.63,1.56,1.37.52,1.1,1.63,1.12,2.42,1.72.1.08-.04.62.09.51.4-.34.39.13.7-.12.56-.45.6.08.92.06.24-.01.22.48.74-.09.07-.08.13-.04.12.06-.07.76.68-.03.79.4.89-.5,1.12.29,1.71.39.09.01.24-.11.36-.17.06-.03.16-.1.16-.03.04,1.03.83.65,1.18,1.1.12.15.15.45.26.61.11.16.37.04.26.62-.03.18.09.15.19.12.52-.15.25,1.05-.6,2.75-.31.62-.4.62-.59.8-.37.36-.67.57-.82.44-.12-.11-.18-.38-.61.14-.07.09-.13.03-.12-.06.03-.65-.46-.37-.51-.85-.03-.37-.23-.38-.34-.58-.09-.17-.4.07-.26-.54.05-.2-.33.19-.44.16-.26-.07-.51-.16-.7-.36-.57-.61-1.72-.11-2.31-.7-.9.49-1.05-.48-1.75-.37-.84.12-1.31-.44-2.02-.57-.14-.03-.23-.1-.24-.35,0-.16,0-.34-.07-.39-.27-.19-.59-.28-.84-.5-.13-.12-.51.17-.26-.61.03-.11-.04-.13-.12-.07-.63.57-.67,0-.98-.06-.12-.02-.2-.1-.17-.41.03-.34-.16-.41-.43-.22-.2.14-.28.1-.4.11-.49.03-.48-.89-1.31-.23.22-.85-.14-.73-.43-.66-1.11.28-1.56-.62-2.36-.9-.19-.07-.19-.48-.34-.64-.15-.17-.36-.25-.56-.32-.11-.04-.09-.35-.47.15-.03.04-.06.06-.07.04-.06-.15-.05-.41-.18-.43-.11-.02-.4.3-.55.35-.18.05-.3,0-.43-.06-.12-.05-.31,0-.13-.53-.42.55-.39.18-.52.16-.13-.02-.22-.11-.33-.17l-.36-.2c-.12-.07-.22-.18-.37-.19-.21,0-.49.12-.69.09-.21-.03-.38-.13-.52-.29-.18-.2-.29-.5-.45-.73-.07-.09-.22.01-.43.18-.27.22-.76.76-.46-.14.06-.18-.07-.19-.19-.11-.93.59-1.02-.37-1.62-.39.08-.77-.38-.52-.74-.49-.53.04-1.01-.08-1.2-.66-.2-.61-.73-.6-1.05-.96-.09-.1-.34.07-.14-.55.05-.14-.06-.15-.15-.09-.64.41-.87.08-1.01-.48-.07-.29-.4-.16-.71-.04-.47.17-.66-.24-.97-.4.23-.77-.24-.11-.47.15-.3.36-.42.38-.54.34-.15-.06-.22-.26-.59.13-.19.2-.32.06-.27-.22.06-.38-.05-.25-.25-.08-.24.2-.02-.51-.18-.55-.17-.04-.52.22-.28-.58.02-.07-.03-.09-.08-.04-.65.61-.38-.62-.82-.43-.41-1.25-1.6-.95-2.28-1.65-.28-.29-.37-1.01-.87-.83-1.05.37-1.53-.46-2.31-.66-.16-.04-.49.21-.3-.58.03-.11-.05-.13-.12-.06-.53.57-.66.26-.68-.3,0-.13-.12-.17-.23,0-.32.46-.34.21-.44.15-.12-.07-.08-.58-.27-.36-.4.47-.22-.17-.29-.33-.05-.09-.19.01-.3.06-.05.02-.2.22-.19.16.03-.73-.6.06-.73-.29-.03-.08-.09-.09-.11-.18-.22-1.06-.22-1.07-1.12-.95.18-.98-.61.24-.54-.53.03-.28-.15-.29-.32-.15-.75.61-.97-.21-1.5-.17-.11,0,.07-.62-.26-.18-.12.16-.05-.43-.16-.45-.16-.03-.18-.42-.57.1-.16.21-.21-.03-.33-.02-.16.01-.2-.27-.55.15-.19.23-.37.17-.35-.1.07-1.11-.62-.39-1.1-.2-.14.06-.25.12-.29-.07-.05-.27-.12-.62-.36-.39-.42.41-.52.12-.72.07-.35-.09-.64-.33-1-.42-.41-.09-.66-.51-1.26-.22-.32.16-.7.27-.55-.61.02-.1-.28.29-.34.27-.48-.19-.96-.39-1.4-.68-.1-.07.15-.89-.24-.32-.42.6.09-.74-.38,0-.07.11-.16.05-.17-.05-.14-1.09-1.01-.72-1.46-1.2-.1-.12-.41.12-.19-.59-.7.56-.31-1.12-1.22-.12-.14-.31-.7.17-.54-.72.03-.14-.15,0-.13-.13.05-.46-.64.68-.5-.02.08-.4-.22-.29-.35-.39-.13-.09-.27-.15-.41-.22l-.45-.24c-.15-.08-.28-.2-.46-.23-.36-.04-.91.27-1.12-.08-.02-.04-.13.02-.2.13-.63.94-.5.31-.45-.04.04-.29.03-.45-.07-.49-.27-.13-.55-.23-.77-.43-.13-.12-.47.11-.28-.59.06-.22-.09-.24-.23-.14-.68.48-.81-.09-1.19-.17-.17-.04-.31-.14-.45-.24-.11-.08-.45.29-.34-.18-.99.5-1.27-.33-1.88-.54-.61-.21-1.14-.57-1.67-.91-.13-.09-.46.14-.22-.58.05-.14-.06-.18-.16-.07-.28.31-.44.47-.27-.06.03-.1-.1-.04-.19.03-.26.2-.34.12-.33-.19.01-.24-.05-.42-.22-.33-.45.24-.85.43-.71-.39.02-.1-.31.3-.35.25-.16-.2-.57.04-.48-.6.04-.26-.18-.17-.25-.29-.12-.2-.5.07-.57-.25-.08-.32-.38-.27-.58-.38l-.6-.33-.6-.33-.6-.33-.6-.33c-.2-.11-.41-.22-.6-.34-.14-.08-.23-.23-.22-.57,0-.87-.48-1.02-1.31-.79-.06.02-.08-.04-.12-.06-.52-.29-1.12-.45-1.54-.92-.19-.2-.25-.63-.51-.71-.17-.05-.26-.23-.64.1-.32.28-.17-.42-.65.12-.18.2-.31.11-.29-.12.09-.75-.33-.56-.55-.74-.25-.21-.54-.35-.85-.45-.15-.05-.18-.34-.59.1-.2.21-.28-.05-.26-.32.02-.42-.17-.44-.39-.38-.48.13-.51.19-.62-.36-.01-.07-.05-.09-.09-.11-.39-.21-.66-.66-1.21-.54-.46.1-.78-.04-1.1-.19-.13-.06-.43.16-.19-.56.03-.1-.04-.13-.12-.06-.64.59-.72.06-1-.07-.27-.12-.81.34-1.01.06-.18-.27-.5-.29-.75-.42-.39-.2-.27-.65.65-2.48.76-1.51,1.02-1.79,1.5-1.94,1.02-.33,1.44.52,2.09.61Z" class="cls-3"></path>
    <path d="m50.88,47.99c-.6.81-1.13,1.44-1.52,2.18-.06.11.17.46.07.59-.4.51-.48,1.26-1.2,1.51-.79.28-1.23.8-1.34,1.51-.1.68-.52,1.13-.78,1.68-.09.19-.13.4-.63.33-.36-.05-.56.18-.2.69.07.1-.08.11-.16.14-.09.03-.34-.04-.3.05.4.99-.5,1.13-.67,1.76-.04.16-.34.15.07.58.11.11.05.25-.09.21-.37-.1-.49-.04-.57.08-.32.54-.68,1.05-1.02,1.57.47.67,0,.78-.18,1.05-.14.2-.49.27-.75.39-.26.13,0,.61-.69.45-.11-.03,0,.16-.02.23-.12.29-.1.69-.46.81-.19.06-.37.12-.46.24-1.06,1.63-2.1,3.27-3.11,4.93-.09.14-.25.23.03.62.22.3.07.57-.29.5-.59-.11-.5.19-.64.35-.25.3-.38.67-.63.96-.15.17.04.59-.71.36-.07-.02-.11.04-.06.1.49.6-.16.49-.37.66-.16.12-.24.28-.04.64.2.35.08.66-.34.62-.56-.05-.53.22-.65.41-.73,1.12-1.42,2.26-2.06,3.44-.3.56-.04,1.43-.59,1.85-.13.1.03.39-.5.23-.11-.03-.11.11-.02.22.32.39.08.45-.04.61-.54.72-1.24,1.35-1.28,2.34-.03.76-.5,1.26-.73,1.9-.08.21-.5.23-.68.39-.17.15-.25.37-.33.58-.05.12-.25.17.06.49.17.17.13.37-.07.35-.67-.08-.6.28-.74.51-.4.65-.75,1.34-1.15,2-.1.16.08.5-.58.33-.09-.02.04.17.06.26.02.1.15.27.04.27-.98.03-.81.72-1.08,1.15-.67,1.04-1.13,2.2-1.81,3.23-.19.29.16.82-.02,1.1-.18.27-.27.59-.46.85-.14.19.02.54-.67.42-.19-.03-.26.12-.14.26.47.53.04.62,0,.91-.04.35-.57.46-.1,1.06.13.16-.28.15-.36.25-.15.18-.27.38-.35.6-.03.11.14.31.11.42-.23.84-.44,1.68-.74,2.47-.31.81-.74,1.56-1.11,2.34-.38.78-.68,1.59-1.12,2.33-.16.28.16.82-.79.71.37.5-.04.6-.7.58-.1,0,.1.19.14.29.13.3.88.86-.12.67-.04,0,0,.04-.03.05-.21.13.66.66,0,.65-.41,0-.37.29-.48.48-.12.19-.25.38-.26.61-.01.24-.54.29.08.77.1.08-.45.03-.45.13-.02.53-.85.75-.22,1.55.14.18.06.34-.16.38-.77.16-.61.66-.54,1.17.08.66-.02,1.28-1.11,1.48-.23.04-.4.04-.13.27.18.15.08.27.04.37-.4,1.21-.87,2.4-1.22,3.61-.1.33-.88.42-.73.84.06.17-.34.23.21.52.08.04.1.11.05.12-.8.21.06.89-.32,1.21-.08.07-.24.12-.33.19-.1.07-.29.13-.21.23.66.83-.11,1.31-.02,1.99.03.23-.41.39.28.72.1.05.07.14-.03.16-.96.21-.33.72-.61,1.06-.14.18.31.45-.44.54-.1.01-.03.1.01.15.08.1.31.2.28.28-.08.22-.48.42-.25.64.28.26.15.47.16.71,0,.13-.34.25-.42.39-.08.13-.03.26-.02.4,0,.2.14.4-.01.58-.16.2.61.32.1.55-.39.18.32.34.4.51.04.09-.04.19-.12.28-.06.07-.29.16-.27.22.06.14-.07.3.27.43.23.09-.16.31-.2.48-.04.16.02.31.03.47.01.16-.12.34.07.47.82.54.46,1.22.64,1.84.05.16.33.3-.29.54-.11.04-.11.14-.03.17,1,.46.39,1.19.75,1.76.25.4.68.76.69,1.21,0,.44-.08.92.31,1.27.32.29.62.57.54.93-.09.36,1.25.39.25.94.07.33.18.65.21.99.03.29.37.5-.18.92-.2.15-.14.34.09.4.74.19.63.57.39,1-.06.1.28.13.32.22.11.28.24.56.22.88-.05.94.89,1.6,1.13,2.46.04.16.59.2.49.38-.58,1.07.48,1.73.24,2.71-.36,1.44.47,2.58.64,3.89.02.17-.46.48-.29.52.54.12.2.5.61.62.73.21.39.68.65,1,.18.24-.18.63.61.7.11.01.12.11.05.18-.59.56.52.7.29,1.17,1.01.55.6,1.46.95,2.18.05.11.26.18.38.27.06.05.19.09.14.15-.74.88.08,1.47-.02,2.24-.03.25-.24.52-.29.78-.05.26.21.47-.31.79-.16.1-.05.22.03.31.46.5-.66,1.08-2.55,1.34-.68.1-.74,0-1.01-.08-.52-.15-.87-.31-.86-.58,0-.21.19-.46-.49-.54-.11-.01-.11-.11-.03-.17.54-.44,0-.75.33-1.15.26-.31.13-.53.21-.79.07-.22-.32-.36.23-.69.18-.11-.36-.21-.42-.34-.13-.32-.24-.65-.22-1,.05-1.07-1.14-1.85-1.14-2.91-.99-.51-.43-1.44-1.02-2.06-.71-.74-.67-1.67-1.11-2.48-.09-.17-.11-.31.06-.52.11-.14.23-.29.21-.39-.07-.42-.25-.81-.29-1.24-.02-.23-.5-.37.22-.77.1-.06.06-.15-.04-.17-.87-.16-.5-.67-.7-1.03-.07-.13-.08-.28.16-.51.26-.25.16-.51-.17-.61-.25-.08-.28-.2-.38-.31-.4-.47.25-1.22-.83-1.51.75-.49.4-.76.13-.99-1.03-.88-.73-2.11-1.14-3.15-.1-.25.2-.6.21-.88,0-.3-.08-.57-.18-.84-.05-.15.18-.38-.45-.36-.05,0-.08-.02-.08-.04.06-.18.26-.39.18-.54-.07-.13-.51-.18-.64-.3-.17-.15-.21-.33-.26-.5-.05-.17-.22-.33.29-.57-.7,0-.4-.27-.49-.43-.08-.15-.08-.32-.11-.49l-.1-.56c-.03-.19,0-.38-.11-.56-.14-.24-.42-.45-.54-.69-.12-.26-.17-.53-.14-.81.04-.36.2-.73.28-1.08.03-.15-.15-.24-.41-.35-.34-.14-1.08-.29-.19-.64.18-.07.1-.23-.03-.31-1.03-.64-.3-1.51-.63-2.24.66-.46.23-.85.01-1.29-.3-.65-.48-1.32,0-2.03.49-.7.23-1.45.5-2.1.07-.18-.16-.42.49-.5.15-.02.13-.16.04-.25-.58-.63-.34-1.16.21-1.6.28-.24.08-.6-.09-.96-.26-.54.1-1.01.23-1.48.82-.02.08-.37-.22-.56-.4-.25-.45-.41-.41-.58.05-.22.24-.4-.2-.75-.22-.18-.09-.42.2-.46.4-.06.25-.17.06-.38-.22-.25.53-.22.56-.44.03-.23-.26-.62.59-.57.08,0,.09-.07.04-.12-.67-.67.62-.71.4-1.24,1.32-.9.97-2.39,1.75-3.46.31-.44,1.07-.71.91-1.33-.35-1.31.6-2.09.87-3.15.06-.22-.18-.61.64-.49.11.02.14-.08.07-.16-.54-.6-.19-.82.4-.93.14-.03.19-.18.03-.3-.44-.35-.18-.41-.1-.55.09-.16.63-.19.42-.4-.45-.46.21-.31.38-.43.11-.07.01-.25-.02-.39-.02-.07-.21-.23-.14-.23.77-.05.02-.78.43-.99.09-.04.11-.13.21-.16,1.17-.39,1.17-.39,1.2-1.55,1,.15-.15-.77.66-.74.29.01.34-.21.22-.43-.5-.94.39-1.23.45-1.92.01-.14.64.05.24-.33-.15-.15.46-.09.51-.23.07-.2.48-.24,0-.71-.19-.19.08-.27.09-.42.02-.2.32-.27-.06-.68-.21-.22-.11-.45.17-.44,1.15.02.52-.81.4-1.39-.04-.18-.08-.31.13-.36.29-.08.68-.19.47-.47-.36-.5-.03-.64.06-.89.16-.45.47-.82.62-1.27.17-.52.66-.87.45-1.59-.11-.39-.16-.85.75-.73.1.01-.26-.33-.23-.4.29-.61.58-1.23.97-1.79.09-.13.92.13.39-.33-.57-.48.77.06.06-.47-.1-.08-.02-.2.09-.22,1.19-.26.95-1.31,1.54-1.9.14-.14-.06-.5.66-.28-.47-.82,1.25-.48.35-1.53.36-.2-.06-.86.87-.73.15.02.03-.19.17-.18.48.03-.61-.74.12-.63.42.07.35-.29.48-.47.12-.17.21-.35.31-.53l.33-.59c.11-.2.27-.36.32-.59.11-.46-.13-1.11.29-1.4.05-.03,0-.16-.11-.24-.9-.7-.24-.59.13-.56.3.02.47,0,.54-.13.18-.34.34-.7.6-1,.15-.18-.04-.57.69-.4.22.05.27-.13.19-.3-.4-.8.24-1.01.4-1.49.07-.22.21-.4.34-.58.1-.14-.23-.53.26-.44-.36-1.18.59-1.61.94-2.38.34-.77.83-1.46,1.3-2.15.12-.17-.07-.56.68-.33.14.04.21-.09.11-.2-.28-.32-.42-.51.12-.34.1.03.06-.13,0-.24-.16-.3-.06-.42.27-.42.26,0,.47-.1.4-.29-.17-.53-.3-1.02.56-.91.11.01-.26-.36-.2-.42.25-.21.07-.7.75-.65.28.02.22-.24.36-.33.25-.17.03-.61.38-.73.36-.12.37-.49.53-.75l.49-.78.49-.78.49-.78.49-.78c.16-.26.33-.52.5-.77.12-.18.3-.3.67-.32.94-.05,1.22-.66,1.15-1.68,0-.07.06-.11.1-.16.44-.67.76-1.41,1.37-1.96.27-.24.74-.34.9-.67.1-.21.32-.34.06-.79-.22-.38.5-.23.04-.81-.17-.21-.04-.39.2-.36.78.09.69-.43.96-.71.3-.32.53-.68.73-1.07.1-.19.41-.23.06-.74-.18-.25.13-.35.42-.34.45.02.53-.22.52-.5,0-.59-.06-.63.57-.77.08-.02.11-.07.15-.12.34-.49.93-.82.97-1.51.04-.57.29-.97.57-1.37.11-.16-.03-.54.67-.22.1.04.16-.05.11-.14-.42-.81.19-.91.43-1.25.24-.33-.06-1.04.33-1.28.36-.22.53-.62.79-.95.4-.49.83-.31,2.4,1,1.3,1.08,1.49,1.43,1.48,2.02-.02,1.22-1.06,1.67-1.37,2.43Z" class="cls-1"></path>
    <path d="m58.61,65.84c-.49.78-.94,1.39-1.24,2.08-.05.11.21.43.13.55-.34.48-.35,1.18-1.03,1.42-.74.26-1.12.74-1.17,1.41-.05.63-.42,1.04-.64,1.56-.07.17-.1.37-.59.3-.35-.05-.53.16-.15.63.07.09-.07.1-.15.12-.08.02-.33-.04-.29.04.45.93-.42,1.04-.54,1.62-.03.14-.33.13.1.54.11.11.06.23-.08.19-.36-.11-.48-.06-.55.06-.28.49-.6.96-.91,1.43.49.64.04.72-.13.97-.12.19-.47.23-.71.34-.24.11.03.57-.64.39-.11-.03.02.15,0,.21-.11.27-.06.64-.41.73-.18.05-.36.09-.43.21-.96,1.47-1.89,2.94-2.81,4.44-.08.13-.23.21.05.58.22.29.09.53-.27.45-.58-.13-.48.15-.61.29-.23.26-.34.6-.58.86-.14.15.07.55-.68.3-.07-.02-.1.03-.06.09.5.58-.13.45-.34.59-.15.1-.23.25-.01.6.21.34.1.61-.31.55-.54-.08-.51.18-.62.35-.67,1-1.32,2.01-1.9,3.07-.28.5,0,1.33-.52,1.68-.13.08.04.36-.48.19-.11-.04-.11.09-.02.2.33.38.09.42-.02.56-.5.63-1.17,1.18-1.19,2.09-.01.71-.45,1.14-.66,1.72-.07.19-.48.18-.65.32-.16.13-.24.32-.31.51-.04.11-.24.14.07.45.17.17.13.35-.06.31-.66-.12-.58.22-.71.42-.38.58-.68,1.2-1.06,1.78-.09.14.08.46-.56.27-.09-.03.05.16.07.25.02.09.15.26.04.25-.96-.03-.77.62-1.03,1-.63.92-1.05,1.95-1.68,2.87-.18.26.18.76,0,1.01-.17.24-.25.52-.44.75-.13.16.03.5-.65.35-.19-.04-.25.09-.13.23.47.51.06.58.04.84-.03.32-.54.39-.05.97.13.16-.26.12-.35.21-.14.16-.26.33-.32.53-.03.1.14.29.12.39-.19.75-.39,1.51-.63,2.22-.26.72-.63,1.39-.96,2.08l-.47,1.04c-.14.35-.28.69-.46,1.02-.13.25.24.72-.7.63.41.44.02.52-.64.53-.1,0,.12.17.17.25.15.26.94.72-.06.6-.04,0,0,.04-.02.05-.19.12.73.57.09.58-.4.01-.32.28-.41.45-.09.17-.19.35-.17.56.02.21-.49.29.17.68.11.06-.44.05-.43.14.03.47-.72.74.01,1.4.17.15.11.3-.09.35-.72.2-.49.64-.36,1.08.16.58.16,1.14-.87,1.43-.22.06-.38.07-.08.26.2.12.12.23.1.33-.25,1.12-.51,2.23-.7,3.37-.06.31-.82.46-.61.83.08.15-.3.24.27.45.08.03.12.09.07.11-.76.26.14.8-.19,1.13-.07.07-.22.13-.3.19-.09.07-.28.14-.18.22.76.72.03,1.22.15,1.84.04.21-.38.38.32.66.11.04.08.13-.02.15-.94.22-.3.69-.58,1.02-.14.17.31.44-.43.51-.09,0-.03.09.02.15.08.09.31.2.29.27-.06.21-.5.39-.28.61.27.27.12.47.11.7,0,.13-.35.22-.45.34-.09.11-.05.25-.06.37-.02.18.09.38-.09.53-.18.16.56.38.03.52-.41.11.27.35.34.53.03.09-.06.17-.15.24-.07.06-.31.1-.3.16.03.14-.12.26.19.43.21.12-.21.26-.28.4-.07.14-.04.29-.05.43-.01.14-.18.29-.02.43.72.64.22,1.18.27,1.77.02.15.26.34-.39.42-.12.02-.13.1-.06.15.87.61.1,1.14.33,1.71.17.41.5.82.4,1.22-.1.39-.29.79,0,1.18.24.32.47.64.29.94-.18.29,1.12.62.02.88,0,.3.03.61-.03.91-.05.26.23.52-.41.76-.23.09-.22.27-.01.37.67.33.47.63.13.96-.08.08.24.17.25.26.04.27.1.54,0,.8-.27.8.49,1.57.5,2.36,0,.15.52.29.39.42-.8.8.09,1.57-.36,2.37-.69,1.18-.07,2.29-.16,3.44-.01.15-.54.35-.38.41.51.18.11.46.49.61.68.27.28.63.48.93.15.22-.27.51.5.65.11.02.1.1.02.15-.66.42.41.64.12,1.01.91.54.44,1.24.72,1.85.04.09.24.15.35.23.06.04.18.08.12.12-.8.71-.04,1.2-.15,1.8-.04.2-.25.43-.3.64-.05.21.21.36-.31.65-.16.09-.05.18.03.25.45.36-.64.95-2.5,1.39-.67.16-.73.07-1,.03-.52-.09-.87-.22-.87-.47,0-.2.17-.45-.51-.48-.11,0-.11-.1-.04-.16.52-.44-.02-.71.31-1.09.26-.29.13-.49.23-.74.08-.21-.3-.34.27-.63.19-.1-.35-.2-.4-.32-.11-.3-.19-.61-.15-.93.11-.97-.94-1.78-.8-2.76-.91-.59-.24-1.37-.7-2.01-.57-.78-.35-1.62-.63-2.43-.06-.17-.05-.3.16-.46.13-.11.28-.22.29-.32.02-.39-.07-.78-.01-1.17.03-.21-.41-.43.38-.64.11-.03.09-.12,0-.16-.81-.31-.34-.7-.45-1.05-.04-.13-.02-.27.26-.42.3-.17.27-.42-.02-.58-.22-.12-.23-.23-.29-.35-.27-.5.54-1.03-.44-1.51.85-.26.56-.58.36-.84-.8-1-.18-2.01-.32-3.01-.03-.24.34-.48.41-.72.08-.26.05-.52.02-.78-.02-.14.27-.29-.34-.42-.05,0-.08-.04-.07-.05.11-.14.35-.29.31-.43-.04-.13-.45-.27-.56-.4-.13-.16-.13-.33-.14-.49,0-.16-.14-.33.42-.43-.68-.15-.33-.32-.37-.48-.04-.15,0-.3,0-.45l.02-.5c0-.17.07-.33.01-.5-.08-.23-.31-.47-.37-.7-.06-.24-.04-.49.05-.72.11-.3.34-.58.48-.87.06-.12-.1-.24-.34-.38-.31-.18-1-.45-.06-.58.19-.03.14-.18.03-.27-.91-.73-.03-1.32-.24-2,.74-.29.34-.68.18-1.07-.23-.58-.3-1.18.19-1.66.51-.52.33-1.1.57-1.64.07-.15-.17-.36.48-.41.15-.01.12-.14.04-.21-.6-.54-.37-.96.13-1.36.26-.21.04-.52-.16-.83-.3-.46.04-.86.1-1.28.81-.06.04-.33-.28-.48-.43-.2-.49-.33-.48-.48.02-.2.19-.36-.29-.64-.24-.14-.14-.35.15-.41.39-.08.23-.16.02-.33-.25-.2.5-.23.5-.43,0-.21-.34-.52.5-.55.08,0,.08-.07.02-.11-.75-.54.51-.68.22-1.13,1.12-.94.64-2.23,1.21-3.28.23-.43.93-.75.7-1.29-.5-1.15.29-1.97.42-2.96.03-.21-.24-.55.58-.5.11,0,.13-.09.05-.16-.6-.52-.29-.75.28-.9.14-.04.17-.18,0-.28-.48-.3-.22-.38-.17-.51.07-.16.59-.22.36-.4-.49-.4.17-.3.34-.42.1-.07,0-.23-.04-.36-.02-.06-.22-.21-.16-.21.76-.08-.03-.74.36-.95.08-.05.1-.12.2-.16,1.13-.4,1.11-.39,1.08-1.49,1,.15-.17-.71.63-.67.29.02.32-.19.2-.39-.53-.88.33-1.14.36-1.77,0-.13.63.07.22-.3-.15-.14.45-.07.49-.2.05-.19.46-.21-.02-.66-.2-.18.07-.24.08-.38.01-.19.31-.23-.08-.63-.21-.21-.12-.42.16-.4,1.14.07.49-.72.36-1.27-.04-.16-.09-.29.11-.33.28-.06.66-.15.45-.42-.37-.48-.06-.6.03-.83.15-.4.45-.73.59-1.14.16-.47.63-.76.41-1.44-.12-.37-.18-.8.71-.63.1.02-.27-.32-.23-.39.26-.55.54-1.1.9-1.6.08-.11.9.17.37-.28-.56-.48.75.1.05-.43-.1-.08-.03-.18.08-.2,1.15-.16.9-1.16,1.46-1.66.14-.12-.07-.47.63-.22-.48-.79,1.2-.37.3-1.4.35-.16-.07-.8.83-.61.15.03.02-.17.16-.15.47.06-.61-.72.1-.57.41.09.34-.25.46-.41.11-.15.19-.31.29-.47l.31-.52c.1-.17.25-.32.3-.53.1-.42-.16-1.04.25-1.28.04-.03,0-.14-.11-.23-.89-.7-.25-.56.11-.51.3.04.46.02.52-.09.17-.31.32-.63.56-.89.14-.15-.05-.53.66-.33.22.06.26-.1.18-.27-.41-.76.2-.92.34-1.35.06-.2.19-.36.31-.52.09-.12-.24-.51.23-.4-.38-1.11.53-1.45.84-2.15.31-.69.75-1.3,1.19-1.92.11-.15-.09-.52.64-.27.14.05.2-.07.1-.18-.29-.31-.43-.49.1-.31.1.03.05-.11,0-.22-.17-.29-.07-.39.25-.38.25,0,.45-.06.38-.25-.19-.5-.33-.96.51-.81.1.02-.27-.35-.21-.39.23-.19.04-.65.7-.56.27.04.2-.21.34-.29.23-.14,0-.56.34-.66.34-.09.34-.43.48-.67l.44-.7.44-.69.44-.69.44-.69c.15-.23.29-.47.44-.69.11-.16.28-.26.63-.26.91,0,1.14-.56,1.03-1.51,0-.07.05-.1.08-.14.38-.6.65-1.28,1.21-1.76.24-.21.7-.29.82-.59.08-.2.29-.3,0-.73-.24-.36.47-.19-.02-.75-.18-.2-.06-.36.17-.33.77.1.64-.38.87-.63.26-.29.46-.62.62-.97.08-.17.38-.2,0-.68-.19-.23.1-.32.38-.3.43.02.49-.19.46-.45-.06-.55-.11-.58.48-.7.07-.01.1-.06.13-.1.29-.44.81-.75.78-1.37-.03-.52.17-.88.38-1.24.08-.14-.1-.49.61-.21.1.04.14-.05.08-.13-.51-.73.07-.83.23-1.13.16-.3-.25-.9.07-1.11.15-.1.24-.23.31-.38l.05-.11s0-.03,0-.05c0-.03,0-.05.02-.07.04-.06.18-.04.54.06.54.18,1.12.37,1.9.63.16.05.36.11.6.19h-.05s-.11-.05.03,0c.16.06.3.12.43.17.25.11.44.21.59.31.28.2.38.41.43.71.09.68-.12,1.08-.35,1.44-.24.36-.53.68-.63,1.05Z" class="cls-1"></path>
    <path d="m70.81,87.24c-.46.66-.88,1.16-1.16,1.75-.04.09.21.41.13.51-.32.4-.32,1.04-.97,1.18-.71.15-1.06.55-1.1,1.15-.04.57-.39.9-.59,1.34-.07.15-.09.33-.56.21-.34-.09-.5.08-.13.56.07.09-.07.08-.14.1-.08.01-.32-.07-.28,0,.44.89-.38.9-.49,1.41-.03.13-.31.08.11.5.11.11.06.22-.07.16-.35-.14-.46-.1-.52,0-.26.41-.56.8-.84,1.2.48.64.05.66-.1.86-.11.15-.44.16-.67.23-.23.07.04.52-.61.29-.1-.04.02.14,0,.19-.1.23-.04.58-.38.62-.17.02-.34.05-.41.14-.88,1.23-1.76,2.46-2.61,3.72-.07.11-.22.16.06.53.22.29.1.49-.25.38-.55-.18-.46.08-.58.2-.22.21-.32.51-.54.72-.13.12.07.51-.65.2-.07-.03-.1.02-.05.07.49.58-.12.39-.31.5-.14.08-.21.2,0,.54.2.33.11.57-.28.47-.52-.13-.48.11-.59.25-.62.84-1.22,1.69-1.77,2.58-.25.42.03,1.2-.47,1.46-.12.06.05.33-.45.12-.1-.04-.1.07-.01.18.32.38.09.39,0,.5-.47.52-1.1.95-1.1,1.76,0,.64-.41.98-.6,1.48-.06.17-.46.12-.62.22-.16.1-.22.27-.29.43-.04.1-.22.1.08.42.16.17.14.33-.05.28-.64-.17-.55.14-.68.31-.36.48-.63,1.01-.98,1.5-.09.12.09.42-.53.19-.09-.03.05.15.07.23.03.08.15.25.05.23-.92-.12-.73.48-.97.8-.59.77-.97,1.66-1.56,2.42-.16.21.2.7.03.91-.16.2-.23.45-.4.64-.12.13.04.45-.62.25-.18-.05-.24.06-.12.19.47.5.07.52.06.75-.02.28-.51.3-.02.86.13.15-.25.08-.33.16-.13.13-.24.27-.3.44-.03.08.15.27.13.36-.17.65-.33,1.31-.54,1.93-.23.62-.58,1.18-.87,1.77-.32.59-.49,1.19-.83,1.75-.12.21.26.64-.67.51.42.41.03.46-.62.42-.09,0,.12.15.17.23.16.24.97.7-.02.53-.04,0,0,.03-.02.04-.18.1.73.53.09.51-.4-.01-.31.22-.39.37-.09.15-.18.29-.16.48.03.19-.47.23.2.62.11.06-.43.02-.42.11.06.42-.71.61.02,1.23.17.14.11.27-.09.3-.72.13-.48.54-.34.94.18.53.16,1.02-.86,1.2-.22.04-.38.04-.08.22.19.12.11.21.09.3l-.76,2.91c-.07.26-.83.33-.63.67.08.14-.31.18.26.42.08.03.11.09.06.1-.76.16.12.72-.24.98-.08.05-.23.09-.31.14-.09.05-.28.09-.2.18.71.7-.04,1.06.05,1.62.03.19-.4.29.29.61.1.05.08.12-.03.13-.93.09-.35.57-.64.83-.15.13.28.42-.47.39-.09,0-.04.08,0,.13.07.09.29.21.26.27-.08.17-.52.28-.32.5.25.27.08.43.06.62-.01.11-.36.15-.46.24-.1.09-.06.21-.09.32-.03.15.05.34-.14.45-.2.11.52.4-.02.45-.42.04.24.34.28.5.02.08-.08.14-.17.19-.07.04-.32.04-.31.1.02.12-.14.21.15.4.2.13-.24.2-.31.31-.08.11-.06.24-.09.37-.03.12-.2.22-.05.37.64.65.08,1.05.07,1.57,0,.13.22.33-.44.31-.12,0-.14.07-.08.12.79.66-.03,1,.13,1.53.11.38.38.79.23,1.12-.15.32-.39.64-.15,1.02.2.32.38.63.16.86-.21.23,1.02.73-.11.76-.05.26-.07.53-.17.78-.08.21.15.49-.52.58-.24.03-.26.19-.07.31.61.4.37.63-.02.85-.09.05.21.19.21.27,0,.24,0,.48-.13.69-.4.64.21,1.45.09,2.13-.02.13.46.36.31.44-.94.53-.22,1.37-.81,1.96-.88.87-.55,1.95-.87,2.91-.04.13-.6.17-.46.26.45.27,0,.42.34.64.61.39.12.6.24.91.09.22-.38.37.33.68.1.04.07.11-.02.13-.74.19.25.65-.12.89.76.69.09,1.18.2,1.77.02.09.19.19.28.29.05.05.15.11.09.14-.96.39-.34,1.01-.64,1.49-.1.16-.36.29-.47.45-.11.16.09.36-.48.46-.18.03-.1.14-.04.22.33.43-.89.61-2.79.44-.69-.06-.72-.15-.96-.26-.47-.22-.77-.42-.7-.63.06-.16.29-.32-.35-.54-.11-.04-.08-.11.01-.14.62-.22.18-.59.62-.81.34-.16.28-.36.43-.54.13-.15-.2-.36.42-.45.21-.03-.29-.26-.3-.37-.02-.28-.02-.55.1-.8.38-.77-.46-1.71-.09-2.48-.76-.71.11-1.19-.21-1.83-.39-.78,0-1.43-.1-2.16-.02-.15.02-.26.26-.35.15-.06.32-.12.34-.2.09-.32.08-.66.21-.98.07-.17-.32-.44.49-.46.11,0,.12-.08.03-.14-.74-.43-.2-.66-.25-.97-.02-.12.03-.23.34-.3.33-.08.34-.3.08-.49-.19-.15-.18-.24-.23-.36-.18-.47.7-.76-.18-1.35.88-.06.65-.38.49-.64-.61-.99.12-1.73.14-2.6,0-.21.4-.35.51-.54.12-.2.13-.43.13-.65,0-.12.3-.2-.29-.41-.04-.02-.07-.04-.06-.05.13-.1.38-.18.36-.31-.02-.12-.41-.3-.49-.43-.1-.16-.09-.3-.07-.44.01-.13-.09-.3.47-.3-.65-.24-.28-.32-.31-.46-.02-.13.04-.25.07-.38l.09-.42c.03-.14.11-.27.07-.42-.05-.21-.26-.45-.29-.65-.03-.22.02-.42.13-.61.14-.23.4-.44.57-.67.07-.09-.08-.22-.29-.37-.29-.2-.94-.52,0-.5.19,0,.16-.13.06-.22-.82-.74.08-1.13-.06-1.74.76-.15.4-.53.28-.89-.18-.52-.18-1.03.33-1.39.54-.38.4-.9.67-1.33.08-.12-.15-.32.5-.29.15,0,.13-.1.05-.18-.56-.53-.29-.86.22-1.15.27-.15.06-.44-.12-.73-.28-.43.07-.73.17-1.09.8.03.06-.28-.25-.44-.42-.21-.47-.33-.45-.46.03-.17.2-.29-.25-.57-.23-.15-.13-.31.16-.34.39-.03.23-.11.02-.28-.25-.2.5-.15.5-.32,0-.18-.33-.48.51-.43.07,0,.08-.05.02-.09-.73-.53.53-.54.26-.95,1.16-.71.63-1.86,1.23-2.73.24-.36.94-.58.69-1.07-.53-1.03.26-1.69.38-2.55.02-.18-.26-.49.55-.4.11.01.13-.07.04-.13-.62-.48-.31-.67.25-.78.14-.02.16-.15,0-.25-.48-.29-.22-.35-.17-.46.07-.14.58-.16.35-.34-.49-.38.17-.26.31-.36.09-.06-.02-.21-.07-.33-.02-.06-.23-.2-.16-.2.75-.03-.05-.66.33-.83.08-.04.09-.1.19-.13,1.1-.3,1.09-.27,1.03-1.27.97.19-.2-.66.59-.57.29.04.31-.15.19-.34-.54-.83.3-1,.31-1.56,0-.12.62.11.21-.26-.15-.14.44-.03.47-.14.05-.16.44-.16-.04-.6-.2-.18.06-.21.07-.34,0-.17.3-.18-.09-.57-.21-.21-.12-.38.14-.35,1.1.16.46-.61.32-1.11-.04-.15-.09-.27.1-.29.27-.03.63-.08.42-.34-.37-.47-.07-.54,0-.75.14-.35.42-.62.54-.97.14-.41.59-.63.36-1.27-.12-.34-.19-.74.68-.51.1.03-.26-.31-.23-.37.24-.48.5-.95.84-1.36.08-.1.87.24.35-.22-.56-.49.73.16.04-.39-.1-.08-.03-.17.07-.17,1.11-.04.84-.96,1.37-1.37.13-.1-.08-.43.6-.14-.48-.76,1.15-.22.26-1.23.33-.11-.09-.73.79-.47.14.04.02-.15.15-.12.45.1-.6-.71.08-.51.39.12.32-.19.43-.32.1-.12.18-.27.26-.4l.29-.44c.1-.15.24-.27.28-.45.08-.37-.17-.95.22-1.13.04-.02,0-.13-.11-.22-.87-.73-.25-.53.09-.45.29.07.44.07.5-.03.16-.26.29-.54.52-.75.13-.13-.06-.49.62-.23.21.08.25-.07.16-.22-.41-.73.18-.81.3-1.19.06-.17.18-.3.29-.44.09-.1-.24-.48.22-.33-.39-1.05.48-1.26.76-1.86.28-.6.7-1.11,1.1-1.62.1-.13-.09-.48.61-.17.13.06.19-.04.09-.16-.28-.31-.42-.49.09-.27.09.04.05-.1-.01-.2-.17-.28-.07-.36.23-.31.24.03.43-.01.36-.19-.19-.47-.33-.9.48-.68.1.03-.26-.34-.2-.38.22-.14.03-.58.66-.43.26.06.19-.17.32-.23.22-.11,0-.51.32-.56.33-.05.32-.36.45-.55l.41-.58.41-.58.41-.58.41-.58c.14-.19.27-.39.41-.58.1-.13.26-.21.6-.17.87.09,1.09-.39.96-1.26,0-.06.05-.08.08-.12.36-.5.6-1.09,1.13-1.47.23-.17.67-.19.78-.45.07-.17.27-.24-.01-.67-.24-.35.44-.13-.03-.68-.17-.2-.06-.33.16-.28.74.18.61-.28.82-.48.25-.23.43-.51.58-.81.07-.15.36-.14-.02-.61-.19-.23.09-.28.36-.23.41.07.46-.12.43-.36-.06-.5-.12-.54.45-.59.07,0,.1-.04.12-.08.27-.37.76-.59.72-1.16-.03-.47.16-.78.36-1.09.08-.12-.1-.45.59-.12.1.05.14-.03.08-.11-.5-.71.04-.73.21-.99.16-.26-.23-.86.08-1.01.28-.14.31-.42.46-.63.22-.32.65-.16,2.4.91,1.45.88,1.7,1.17,1.79,1.67.19,1.1-.73,1.44-.91,2.08Z" class="cls-1"></path>
    <path d="m78.87,96.91c-.51.57-.95,1.03-1.27,1.58-.05.09.18.42.1.51-.33.36-.35,1-1,1.1-.71.11-1.07.5-1.12,1.09-.05.56-.4.88-.6,1.31-.07.15-.09.32-.55.2-.34-.09-.5.08-.13.55.07.09-.07.08-.14.09-.08.01-.32-.08-.28,0,.45.89-.38.89-.47,1.4-.02.13-.31.09.12.5.11.11.06.21-.07.16-.35-.13-.46-.1-.52,0-.26.41-.54.8-.82,1.2.5.62.07.66-.08.86-.11.16-.43.17-.66.24-.23.08.06.52-.6.3-.1-.03.02.14,0,.19-.09.23-.03.57-.36.63-.17.03-.34.06-.4.15-.83,1.26-1.66,2.52-2.43,3.82-.07.11-.21.17.09.52.23.27.12.48-.23.39-.56-.15-.45.1-.57.23-.21.22-.28.53-.49.75-.12.13.1.5-.63.24-.07-.03-.1.02-.05.08.53.55-.1.4-.28.51-.13.09-.2.21.03.54.22.31.14.56-.25.48-.53-.1-.48.14-.57.28-.56.88-1.09,1.77-1.57,2.69-.23.44.12,1.19-.35,1.49-.11.07.07.32-.44.16-.11-.03-.1.08,0,.18.35.35.13.38.03.5-.43.55-1.03,1.03-.95,1.84.06.63-.33,1.01-.47,1.52-.05.17-.45.15-.6.28-.15.12-.2.29-.25.45-.03.1-.22.12.11.41.18.16.16.32-.03.28-.65-.12-.53.19-.64.37-.31.51-.54,1.07-.85,1.58-.08.13.13.41-.52.23-.09-.02.06.15.09.22.03.08.17.23.07.23-.93-.04-.69.54-.89.88-.5.82-.81,1.74-1.34,2.55-.15.23.25.68.11.9-.14.21-.19.47-.34.67-.11.15.08.44-.59.31-.18-.04-.23.08-.1.2.51.46.11.51.11.74,0,.28-.49.34.03.86.14.14-.25.1-.32.18-.12.14-.22.29-.27.47-.02.08.17.26.15.35-.12.67-.21,1.36-.41,1.99-.21.64-.54,1.23-.81,1.85-.26.62-.48,1.26-.81,1.85-.13.22.25.67-.68.54.41.42.03.48-.62.44-.09,0,.12.16.17.24.15.25.93.75-.06.54-.04,0,0,.03-.02.04-.19.09.7.57.07.53-.4-.03-.32.22-.41.36-.09.15-.2.29-.18.48.02.2-.49.2.15.63.1.07-.43,0-.43.08.02.43-.76.56-.08,1.24.16.16.08.28-.12.3-.73.08-.52.5-.42.92.14.54.08,1.04-.96,1.14-.22.02-.38,0-.1.21.18.14.1.22.07.31-.35.94-.69,1.88-1.01,2.83-.09.26-.85.26-.69.62.07.14-.32.16.22.44.08.04.1.1.05.11-.77.09.06.73-.32.95-.08.05-.23.07-.32.11-.09.05-.29.07-.21.16.67.76-.11,1.06-.06,1.62.02.19-.42.26.24.63.1.06.07.13-.04.13-.94.02-.39.54-.7.77-.16.12.25.43-.49.36-.09,0-.04.07,0,.13.07.09.28.23.24.29-.09.17-.53.25-.35.47.23.28.06.43.03.62-.02.11-.37.12-.48.21-.1.08-.07.21-.1.31-.04.15.04.34-.16.44-.2.1.5.43-.05.45-.42.02.22.35.26.51.02.08-.08.13-.18.18-.07.04-.32.02-.32.08,0,.12-.15.2.13.4.19.14-.25.18-.33.29-.09.11-.07.24-.1.36-.03.12-.21.22-.07.37.62.68.05,1.05.02,1.56,0,.13.21.34-.44.29-.12,0-.14.06-.08.12.77.68-.06.99.08,1.52.11.38.38.79.22,1.11-.15.32-.4.62-.16,1.01.2.32.37.63.15.85-.21.22,1.01.72-.12.75-.06.26-.07.52-.16.77-.08.21.16.48-.5.58-.24.03-.25.19-.06.31.62.39.38.62,0,.84-.09.05.21.19.21.27,0,.23.01.47-.12.68-.4.63.25,1.41.17,2.09-.02.12.48.33.33.42-.91.55-.15,1.35-.72,1.95-.84.9-.39,1.94-.64,2.9-.03.13-.59.22-.44.29.47.23.04.41.39.59.63.33.16.57.32.86.11.21-.34.4.4.63.11.03.09.1,0,.13-.72.26.31.6-.03.88.83.59.22,1.13.38,1.69.02.08.21.17.31.25.05.04.17.09.11.12-.89.49-.19,1.02-.43,1.53-.08.17-.33.34-.42.51-.09.17.14.34-.43.52-.17.05-.08.15-.02.22.38.38-.81.72-2.72.79-.69.03-.73-.06-.99-.14-.5-.16-.82-.32-.77-.54.04-.17.25-.35-.41-.49-.11-.02-.09-.1,0-.14.59-.29.11-.61.52-.88.31-.21.23-.4.35-.59.11-.16-.25-.34.36-.5.2-.05-.32-.22-.35-.34-.07-.27-.09-.55.01-.81.31-.81-.63-1.66-.35-2.48-.83-.64-.03-1.21-.38-1.82-.44-.75-.1-1.44-.26-2.18-.03-.15,0-.27.23-.37.15-.07.31-.14.33-.23.06-.33.02-.68.15-1,.06-.17-.34-.43.48-.49.11,0,.11-.09.02-.14-.75-.39-.23-.65-.28-.97-.02-.12.02-.23.33-.32.33-.09.32-.31.06-.5-.2-.14-.19-.24-.24-.35-.2-.47.65-.8-.23-1.37.88-.09.65-.4.49-.66-.62-.99.1-1.76.1-2.64,0-.21.39-.36.51-.55.12-.2.14-.43.15-.66,0-.12.31-.2-.28-.42-.04-.02-.07-.04-.06-.05.13-.1.38-.18.36-.32-.02-.12-.41-.31-.49-.44-.1-.16-.08-.31-.07-.45.02-.14-.09-.31.47-.3-.65-.25-.28-.33-.3-.48-.02-.14.04-.26.07-.38l.09-.43c.03-.14.12-.27.09-.43-.04-.21-.24-.46-.26-.67-.02-.22.03-.43.15-.61.15-.23.42-.44.6-.66.07-.09-.07-.22-.28-.39-.28-.21-.92-.56.03-.51.19.01.17-.13.07-.23-.8-.79.12-1.15.02-1.76.77-.11.43-.52.33-.89-.15-.54-.12-1.06.41-1.39.57-.35.44-.89.75-1.31.09-.12-.12-.34.52-.26.15.02.14-.09.06-.18-.52-.57-.22-.89.31-1.14.28-.13.09-.44-.07-.74-.24-.45.13-.73.24-1.09.8.09.07-.28-.22-.46-.4-.25-.44-.37-.41-.5.04-.16.23-.28-.2-.6-.22-.16-.1-.32.19-.32.39,0,.24-.1.05-.28-.23-.22.51-.11.53-.28.02-.18-.28-.51.54-.39.07.01.08-.04.03-.09-.69-.59.57-.5.33-.93,1.19-.62.82-1.8,1.46-2.62.27-.33.98-.5.77-1.01-.45-1.07.39-1.65.56-2.48.04-.18-.23-.5.57-.35.11.02.13-.06.05-.13-.58-.52-.27-.68.29-.74.14-.02.17-.13,0-.24-.46-.31-.21-.35-.16-.45.07-.13.58-.12.36-.31-.48-.4.18-.24.33-.32.1-.05,0-.2-.06-.32-.02-.06-.23-.2-.16-.2.74,0-.06-.63.31-.78.08-.03.09-.1.19-.12,1.08-.26,1.08-.25.99-1.2.98.18-.23-.64.55-.57.28.03.29-.16.16-.34-.58-.79.24-.99.22-1.54,0-.12.62.08.19-.26-.16-.13.43-.05.46-.16.04-.16.43-.17-.08-.59-.21-.17.04-.22.04-.34,0-.17.28-.2-.14-.56-.23-.19-.16-.37.11-.35,1.11.08.41-.63.23-1.12-.05-.15-.11-.26.08-.29.27-.05.63-.12.4-.36-.4-.43-.11-.53-.05-.73.1-.36.36-.65.44-1.02.1-.42.52-.68.25-1.29-.15-.33-.25-.72.63-.56.1.02-.29-.28-.26-.35.2-.49.42-.98.72-1.42.07-.1.89.16.33-.25-.6-.44.74.09,0-.39-.11-.07-.05-.16.06-.18,1.1-.14.76-1.03,1.26-1.48.12-.11-.11-.42.59-.19-.54-.71,1.13-.32.15-1.25.32-.14-.15-.72.75-.55.15.03,0-.15.14-.14.46.06-.66-.66.04-.51.4.08.3-.22.4-.36.09-.13.16-.28.23-.42l.25-.47c.08-.16.21-.29.24-.47.06-.37-.25-.94.12-1.15.04-.02-.02-.13-.13-.21-.93-.65-.29-.51.06-.46.29.04.45.03.5-.07.14-.27.25-.56.46-.79.12-.14-.1-.48.61-.28.22.06.25-.09.15-.24-.46-.7.12-.83.22-1.22.05-.18.16-.32.26-.46.08-.11-.27-.47.2-.35-.46-1.02.39-1.3.63-1.93.24-.62.64-1.16,1.01-1.7.09-.14-.12-.48.6-.22.14.05.19-.06.08-.16-.3-.29-.45-.47.08-.28.1.04.04-.1-.02-.2-.19-.27-.1-.36.21-.33.24.02.43-.04.35-.21-.21-.47-.38-.89.45-.71.1.02-.28-.33-.22-.37.21-.16,0-.59.65-.48.26.05.18-.18.31-.25.21-.12-.03-.52.29-.58.32-.07.3-.38.43-.58l.39-.61.39-.61.39-.61.39-.61c.13-.2.26-.41.4-.6.1-.14.26-.22.6-.2.88.06,1.08-.43.94-1.3,0-.06.05-.08.08-.12.36-.52.6-1.12,1.12-1.51.23-.17.66-.21.78-.47.08-.17.28-.25,0-.67-.23-.35.45-.13-.02-.69-.17-.2-.06-.34.16-.29.74.18.62-.28.84-.49.26-.23.45-.52.61-.82.08-.15.37-.14,0-.63-.18-.24.1-.28.37-.24.42.08.47-.12.45-.36-.03-.51-.09-.55.49-.59.07,0,.1-.04.13-.08.3-.37.8-.59.82-1.17.01-.49.24-.8.48-1.11.09-.12-.05-.48.61-.09.09.06.15-.02.1-.11-.4-.79.17-.78.39-1.04.2-.26-.03-.96.35-1.12.35-.14.5-.48.86-.79.5-.44.89-.17,2.15,1.44,1.04,1.33,1.18,1.7,1.17,2.18.01,1-.89,1.14-1.13,1.76Z" class="cls-1"></path>
    <path d="m87.75,113.19c-.55.36-1.02.64-1.38,1.07-.06.07.11.43.03.49-.34.26-.43.81-1.04.76-.66-.05-1.05.22-1.14.76-.09.51-.44.73-.66,1.1-.07.12-.11.28-.54.08-.31-.14-.48-.02-.16.48.06.1-.07.07-.14.06-.08,0-.3-.12-.26-.04.38.9-.4.76-.52,1.22-.03.11-.3.03.09.48.1.12.05.21-.07.14-.33-.18-.44-.16-.5-.08l-.82,1c.46.64.04.61-.1.78-.11.13-.42.1-.64.14-.22.04.04.48-.58.2-.1-.04.02.13,0,.18-.09.2-.03.53-.35.54-.16,0-.33.01-.39.1-.83,1.06-1.62,2.16-2.38,3.28-.06.1-.2.14.09.49.23.27.12.46-.22.34-.54-.19-.44.06-.55.16-.2.19-.28.46-.48.65-.12.11.1.47-.61.17-.07-.03-.1.01-.05.07.52.55-.09.36-.27.45-.13.07-.19.18.03.5.22.31.15.53-.24.43-.52-.13-.46.09-.55.22-.54.76-1.05,1.55-1.5,2.37-.21.39.14,1.11-.33,1.35-.11.06.08.3-.43.11-.1-.04-.09.07,0,.16.35.35.13.36.04.47-.41.48-.98.88-.89,1.64.07.59-.31.91-.44,1.37-.04.15-.44.11-.58.21-.14.1-.19.25-.24.4-.03.09-.21.1.12.38.18.15.17.3-.02.26-.64-.15-.52.14-.62.3-.29.45-.51.95-.8,1.4-.07.11.13.39-.5.18-.09-.03.06.14.09.21.03.08.17.22.07.21-.91-.1-.66.46-.86.76-.47.73-.77,1.55-1.27,2.27-.14.2.26.65.13.84-.13.19-.18.42-.33.6-.1.13.09.41-.57.25-.18-.05-.23.06-.09.18.51.46.12.48.12.69,0,.26-.48.29.05.8.14.14-.24.08-.31.15-.12.12-.21.26-.25.42-.02.08.17.25.15.33-.11.61-.19,1.23-.38,1.8-.19.58-.51,1.1-.76,1.65-.25.55-.46,1.12-.79,1.64-.12.19.25.63-.66.45.41.41.03.45-.6.36-.09-.01.12.15.17.23.15.24.93.74-.05.49-.04,0,0,.03-.02.04-.19.07.7.57.07.49-.39-.05-.32.18-.41.31-.09.13-.19.26-.18.43.02.18-.48.16.15.59.1.07-.42-.03-.42.05.03.4-.74.47-.06,1.13.16.15.09.26-.11.27-.71.03-.51.43-.41.81.13.5.07.95-.94.98-.22,0-.37-.02-.1.19.18.13.1.21.07.28l-.99,2.52c-.09.23-.84.19-.68.52.07.14-.32.12.22.42.07.04.1.1.05.1-.76.04.06.67-.31.85-.08.04-.23.05-.32.08-.09.04-.28.05-.21.13.65.73-.12.96-.07,1.47.01.17-.41.21.24.59.1.06.07.12-.04.12-.93-.04-.38.47-.69.66-.16.1.25.41-.49.3-.09-.01-.04.07,0,.12.07.09.27.22.24.28-.09.15-.53.19-.35.41.22.27.05.39.02.56-.02.1-.37.09-.48.16-.1.07-.08.18-.11.28-.04.13.03.31-.16.39-.2.08.49.42-.05.41-.41,0,.22.33.25.48.02.07-.08.11-.18.15-.07.03-.32,0-.32.05,0,.11-.15.17.13.37.19.14-.24.15-.32.24-.08.09-.08.21-.11.32-.03.11-.21.18-.07.33.6.64.03.95,0,1.41,0,.12.21.32-.44.24-.12-.01-.14.05-.08.1.76.65-.05.89.09,1.38.1.35.36.73.21,1.01-.15.28-.4.54-.16.9.19.29.37.58.16.77-.21.19,1.01.69-.11.67-.05.23-.07.46-.16.68-.08.18.16.44-.5.5-.24.02-.25.16-.06.28.61.37.38.56,0,.74-.09.04.22.17.22.24,0,.21.02.42-.11.6-.37.55.28,1.25.21,1.83-.01.11.49.29.34.37-.9.48-.1,1.16-.63,1.68-.78.79-.3,1.66-.45,2.47-.02.1-.56.23-.4.28.5.14.08.34.46.45.66.2.25.44.43.65.13.14-.29.37.47.43.11,0,.1.06.02.1-.67.31.4.38.1.64.92.22.41.7.7.98.04.04.23.03.34.05.06,0,.17,0,.12.04-.38.26-.37.42-.29.54.08.13.25.15.18.32-.04.11-.22.3-.25.41-.03.11.19.04-.23.44-.13.13-.03.11.05.09.39-.13-.42.78-1.75,2.14-.49.48-.57.45-.82.56-.47.21-.85.27-.95.06-.09-.16,0-.44-.64-.2-.11.04-.14-.05-.09-.13.32-.57-.24-.62,0-1.06.19-.33.02-.45.07-.68.04-.19-.35-.22.16-.58.17-.12-.37-.08-.44-.18-.13-.23-.24-.47-.22-.75.06-.8-1.02-1.39-.88-2.22-.89-.47-.19-1.14-.61-1.66-.54-.67-.25-1.35-.46-2.03-.04-.14-.01-.25.21-.36.15-.07.3-.15.32-.23.06-.31-.01-.63.09-.94.05-.16-.36-.39.45-.46.11-.01.11-.09.01-.13-.77-.35-.26-.6-.32-.89-.03-.11.02-.21.32-.3.32-.09.32-.29.05-.46-.2-.13-.2-.22-.25-.32-.21-.44.66-.72-.24-1.26.87-.07.64-.36.47-.6-.64-.92.08-1.61.09-2.42,0-.2.4-.31.51-.48.12-.18.13-.39.14-.6,0-.11.31-.17-.28-.39-.04-.02-.07-.04-.06-.05.13-.09.38-.15.36-.28-.02-.11-.4-.3-.49-.42-.1-.15-.08-.28-.06-.41.02-.12-.09-.29.47-.25-.64-.26-.28-.32-.3-.45-.02-.13.04-.23.08-.34l.1-.38c.03-.13.12-.24.09-.39-.05-.2-.24-.43-.26-.63-.02-.2.03-.39.15-.55.15-.21.42-.38.6-.57.07-.08-.07-.21-.27-.37-.27-.21-.91-.57.03-.46.19.02.17-.11.07-.2-.78-.76.15-1.04.04-1.61.76-.06.43-.45.33-.79-.15-.5-.12-.98.42-1.25.56-.29.46-.78.76-1.15.08-.1-.12-.31.51-.21.15.02.14-.08.06-.16-.52-.55-.22-.82.31-1.02.28-.1.09-.4-.07-.68-.24-.42.14-.66.25-.97.79.13.08-.25-.22-.43-.39-.25-.44-.37-.41-.48.04-.15.23-.24-.2-.56-.22-.16-.1-.3.19-.28.38.02.24-.07.05-.25-.23-.21.5-.07.52-.23.02-.16-.28-.48.54-.32.07.01.08-.04.03-.08-.68-.58.57-.42.33-.83,1.19-.49.79-1.6,1.43-2.3.26-.29.97-.4.76-.87-.43-1,.37-1.49.53-2.24.03-.16-.23-.47.56-.29.11.03.13-.05.05-.11-.58-.51-.27-.63.28-.66.13,0,.16-.11,0-.22-.46-.31-.21-.33-.16-.42.07-.11.58-.07.35-.26-.47-.39.17-.21.32-.28.09-.04-.01-.18-.06-.29-.02-.05-.22-.19-.16-.19.72.05-.07-.58.29-.7.08-.02.09-.08.18-.1,1.06-.17,1.06-.17.96-1.04.97.22-.23-.6.54-.49.28.04.29-.13.16-.3-.59-.77.22-.9.19-1.41,0-.11.61.11.19-.23-.16-.13.43-.02.45-.12.04-.15.42-.13-.09-.54-.21-.17.04-.2.03-.31,0-.15.27-.17-.14-.52-.22-.19-.16-.35.11-.32,1.09.14.39-.56.2-1.02-.06-.14-.12-.24.07-.27.27-.03.61-.07.39-.31-.4-.42-.11-.49-.06-.68.1-.32.34-.58.42-.91.1-.38.51-.59.22-1.17-.15-.31-.26-.68.61-.48.1.02-.29-.28-.26-.34.19-.44.4-.88.68-1.27.07-.09.87.2.32-.21-.59-.44.73.13,0-.36-.11-.07-.05-.15.05-.16,1.08-.06.72-.91,1.2-1.3.12-.09-.12-.4.58-.14-.54-.7,1.1-.22.13-1.15.31-.11-.16-.68.72-.46.14.04,0-.14.13-.12.45.08-.66-.65.03-.47.4.1.29-.18.39-.31.09-.12.15-.25.22-.38l.24-.41c.08-.14.21-.25.23-.42.05-.34-.25-.89.1-1.06.04-.02-.02-.12-.13-.2-.92-.67-.29-.49.05-.42.29.06.44.06.49-.03.13-.25.24-.5.44-.71.12-.12-.1-.46.59-.22.21.07.24-.06.14-.21-.45-.68.11-.76.2-1.12.04-.16.15-.29.25-.41.08-.09-.27-.45.19-.31-.46-.99.37-1.19.61-1.75.24-.56.61-1.04.98-1.52.09-.12-.11-.46.59-.15.13.06.19-.04.08-.15-.29-.3-.43-.47.08-.25.09.04.04-.09-.02-.19-.18-.27-.09-.34.21-.29.23.04.42,0,.34-.17-.2-.45-.36-.87.44-.63.1.03-.27-.33-.22-.37.21-.13,0-.55.63-.39.26.07.18-.15.3-.21.21-.09-.02-.49.29-.52.32-.03.29-.33.43-.51l.39-.54.39-.54.4-.53.4-.53c.14-.18.26-.36.41-.53.1-.12.26-.18.59-.12.85.16,1.06-.28.97-1.12,0-.06.05-.07.08-.11.36-.45.63-.99,1.17-1.3.24-.13.65-.11.79-.34.09-.15.28-.2.04-.64-.2-.37.44-.06.03-.66-.15-.22-.03-.33.18-.25.7.28.63-.18.86-.34.27-.19.48-.43.67-.69.1-.13.37-.07.08-.6-.14-.26.13-.26.39-.16.39.15.48-.03.49-.26.04-.5,0-.55.55-.48.07,0,.1-.02.14-.05.36-.3.87-.4,1-.96.11-.47.39-.73.69-.97.12-.09.08-.48.62.06.08.08.14.02.12-.08-.21-.86.36-.71.65-.9.27-.19.22-.93.65-.97.39-.03.64-.31,1.01-.46.54-.23.82.14,1.55,2.06.6,1.58.64,1.97.51,2.41-.24.92-1.03.74-1.36,1.22Z" class="cls-1"></path>
    <path d="m96.44,120.36c-.44.38-.84.69-1.11,1.13-.04.07.18.4.11.46-.29.27-.28.8-.87.79-.64,0-.97.28-.98.79-.02.48-.32.72-.48,1.07-.05.12-.07.27-.5.1-.32-.12-.46,0-.09.47.07.09-.06.06-.12.07-.07,0-.3-.11-.26-.03.47.83-.3.74-.35,1.17-.01.11-.28.04.14.45.11.11.07.19-.05.13-.34-.16-.44-.14-.49-.06-.21.33-.45.65-.68.97.51.6.11.58-.02.74-.09.12-.4.1-.61.14-.21.04.09.46-.55.2-.1-.04.03.12.02.17-.07.19.02.5-.29.51-.16,0-.32.02-.37.09-.71,1.01-1.38,2.04-2.03,3.09-.06.09-.19.13.12.46.24.26.15.43-.19.32-.54-.18-.42.05-.52.14-.18.17-.24.43-.42.6-.11.1.13.44-.58.15-.07-.03-.09.01-.04.06.54.53-.06.33-.23.42-.12.06-.17.17.07.47.24.29.18.5-.21.4-.51-.13-.44.07-.53.19-.48.7-.93,1.43-1.32,2.18-.18.36.19,1.04-.25,1.25-.1.05.09.29-.41.09-.1-.04-.09.06.01.15.35.34.14.34.06.44-.37.44-.91.79-.79,1.5.09.55-.26.84-.37,1.27-.04.14-.42.09-.56.18-.13.09-.17.23-.21.37-.02.08-.2.08.13.36.18.15.18.29-.01.24-.63-.16-.5.11-.6.25-.27.41-.47.86-.74,1.27-.07.1.14.37-.48.15-.09-.03.07.13.1.2.04.07.18.22.08.2-.9-.13-.63.4-.81.67-.45.65-.71,1.41-1.18,2.05-.13.18.27.61.15.79-.12.17-.17.38-.31.54-.1.11.09.39-.56.2-.18-.05-.22.05-.09.16.51.45.13.45.14.65.01.24-.46.24.07.74.14.14-.24.06-.3.12-.11.11-.2.23-.24.37-.02.07.17.24.16.32-.1.56-.17,1.13-.35,1.65-.18.53-.48.99-.73,1.49-.24.5-.44,1.01-.76,1.47-.12.17.25.6-.65.38.41.41.04.42-.59.3-.09-.02.12.15.17.22.15.23.92.75-.05.45-.04-.01,0,.03-.02.03-.18.05.68.57.07.46-.38-.07-.31.15-.4.26-.09.11-.19.22-.17.39.02.17-.47.11.15.56.1.07-.42-.06-.41.02.03.37-.73.38-.06,1.05.15.15.08.25-.11.24-.7-.02-.51.36-.41.72.13.48.07.89-.94.83-.21-.01-.37-.04-.1.17.18.14.09.2.06.27l-1.01,2.25c-.09.2-.83.11-.68.42.06.13-.32.09.21.4.07.04.1.1.05.1-.76-.03.05.62-.32.76-.08.03-.23.03-.32.05-.09.03-.28.02-.21.11.63.73-.14.87-.11,1.35.01.16-.41.16.22.56.09.06.06.12-.04.1-.92-.12-.39.4-.71.55-.16.08.23.4-.49.23-.09-.02-.04.06,0,.11.06.09.26.23.23.28-.09.13-.53.13-.36.34.21.27.04.37,0,.52-.02.09-.37.05-.47.11-.1.05-.08.16-.11.24-.05.12.02.29-.18.34-.2.06.47.43-.06.37-.41-.05.2.33.23.47.02.07-.09.1-.18.12-.07.02-.31-.03-.31.02,0,.11-.16.14.11.36.18.15-.25.12-.33.19-.09.08-.08.19-.12.28-.04.1-.22.15-.09.3.56.65-.01.88-.07,1.3-.01.11.19.31-.45.17-.11-.02-.14.03-.09.08.71.68-.1.81,0,1.28.08.33.31.71.14.95-.17.24-.43.45-.22.81.17.29.32.57.1.72-.22.15.95.75-.16.6-.07.2-.1.42-.21.61-.09.16.12.42-.54.39-.24,0-.26.12-.08.24.58.42.33.56-.06.68-.09.03.2.19.19.25-.02.19-.02.39-.16.54-.43.46.15,1.19.01,1.71-.03.1.45.34.29.39-.93.31-.25,1.06-.83,1.46-.88.61-.53,1.48-.82,2.2-.04.09-.6.11-.45.18.46.22.03.32.37.5.63.31.16.45.29.68.11.16-.35.28.38.48.11.03.08.08,0,.1-.73.16.3.45-.03.62.83.42.25.74.44,1.08.03.04.22.08.32.11.05.02.17.04.11.06-.89.35-.15.53-.35.72-.06.06-.29.18-.37.27-.07.08.15,0-.36.26-.16.08-.07.07,0,.07.19-.05,0,.02-.4.31-.46.32-1.07.75-1.82,1.28-.57.39-.64.35-.9.41-.5.12-.89.09-.94-.14-.03-.18.11-.41-.57-.34-.11.01-.12-.08-.06-.14.47-.46-.04-.63.28-.98.27-.25.17-.4.27-.59.09-.16-.29-.27.3-.47.2-.06-.33-.16-.36-.26-.08-.23-.13-.47-.04-.7.26-.69-.68-1.43-.36-2.12-.8-.6.05-1.02-.3-1.58-.4-.68-.03-1.24-.13-1.86-.02-.13.02-.22.25-.29.15-.04.32-.08.34-.15.09-.27.09-.56.22-.82.07-.14-.31-.4.5-.34.11,0,.12-.06.03-.11-.72-.43-.18-.57-.21-.84-.01-.1.04-.19.35-.22.33-.03.34-.21.1-.4-.19-.14-.17-.22-.21-.32-.16-.42.72-.56-.12-1.16.87.06.67-.24.52-.47-.55-.92.22-1.44.29-2.16.02-.18.42-.23.54-.37.13-.15.16-.34.18-.52.01-.1.31-.12-.25-.39-.04-.02-.07-.05-.05-.05.13-.07.38-.09.38-.2,0-.1-.38-.32-.45-.44-.09-.15-.06-.26-.04-.38.02-.11-.07-.27.48-.17-.62-.31-.25-.32-.27-.44-.01-.12.06-.2.1-.3l.12-.34c.04-.11.13-.21.11-.34-.03-.18-.21-.42-.22-.6-.01-.19.05-.35.18-.48.16-.17.43-.3.62-.45.08-.07-.05-.2-.25-.36-.26-.22-.87-.61.05-.42.18.04.17-.08.08-.18-.73-.77.19-.93.11-1.46.75.02.44-.37.35-.69-.13-.47-.08-.9.45-1.09.57-.21.48-.67.78-.97.09-.09-.11-.3.51-.14.14.04.14-.06.07-.14-.49-.55-.2-.77.33-.9.28-.07.1-.36-.05-.63-.23-.41.15-.59.27-.87.77.19.08-.22-.2-.41-.38-.26-.42-.37-.39-.47.04-.13.22-.2-.19-.53-.21-.17-.09-.29.19-.24.38.06.24-.05.05-.23-.22-.21.5-.02.52-.16.02-.15-.27-.46.53-.25.07.02.08-.03.03-.07-.66-.59.56-.34.33-.73,1.18-.34.8-1.41,1.43-2,.26-.24.95-.29.75-.74-.42-.95.37-1.34.53-2.02.03-.14-.23-.45.55-.23.11.03.13-.03.05-.1-.57-.51-.27-.6.27-.59.13,0,.16-.09,0-.2-.45-.32-.21-.32-.16-.4.07-.1.57-.03.35-.21-.47-.39.16-.18.31-.23.09-.03-.01-.17-.06-.27-.02-.05-.22-.19-.16-.19.71.09-.07-.54.28-.62.08-.02.08-.07.18-.08,1.04-.09,1.04-.08.93-.89.96.27-.23-.57.52-.42.27.05.28-.1.15-.27-.58-.74.2-.81.17-1.29,0-.1.6.14.18-.2-.16-.13.42,0,.44-.08.03-.13.41-.1-.09-.51-.21-.17.03-.18.03-.28-.01-.14.26-.14-.15-.49-.22-.19-.16-.33.1-.29,1.07.19.37-.5.18-.93-.06-.13-.12-.23.07-.24.26-.01.6-.03.37-.27-.41-.41-.12-.46-.07-.63.09-.3.32-.51.39-.82.08-.35.48-.52.18-1.07-.16-.3-.27-.64.58-.41.09.03-.29-.27-.27-.32.17-.4.36-.79.62-1.14.06-.08.86.23.31-.18-.59-.43.72.16-.01-.33-.11-.07-.05-.14.05-.15,1.05,0,.67-.81,1.12-1.14.11-.08-.13-.37.56-.1-.56-.67,1.07-.16.08-1.06.3-.09-.18-.63.69-.4.14.04,0-.13.13-.1.44.09-.67-.63,0-.44.39.11.28-.16.36-.27.08-.1.13-.23.2-.34l.21-.38c.07-.13.19-.22.21-.38.03-.32-.29-.83.05-.98.04-.02-.02-.11-.13-.19-.93-.65-.31-.47.03-.39.28.07.43.07.47-.01.11-.22.2-.46.39-.64.11-.11-.12-.43.56-.19.21.07.23-.05.13-.19-.48-.65.06-.7.13-1.03.03-.15.13-.26.22-.37.07-.09-.29-.43.17-.29-.51-.93.29-1.09.48-1.61.19-.52.52-.95.85-1.39.08-.11-.14-.43.56-.13.13.06.18-.03.07-.13-.3-.28-.45-.45.06-.23.09.04.03-.09-.04-.18-.19-.25-.11-.32.18-.27.23.04.4,0,.32-.15-.23-.43-.42-.81.37-.58.1.03-.29-.31-.24-.34.19-.12-.04-.51.58-.36.25.06.16-.14.28-.19.2-.08-.06-.45.24-.48.3-.03.26-.3.37-.47l.33-.5.33-.5.33-.5.34-.5c.11-.17.22-.33.34-.49.08-.11.23-.17.56-.11.83.14.99-.27.81-1.06-.01-.06.04-.07.07-.1.3-.42.49-.93.97-1.23.21-.13.62-.11.71-.33.06-.15.25-.19-.04-.6-.24-.34.41-.07-.06-.62-.17-.2-.07-.31.14-.24.7.24.57-.18.77-.34.23-.18.39-.42.54-.67.07-.13.34-.08-.01-.57-.17-.24.09-.25.34-.17.39.12.44-.05.42-.27-.04-.47-.09-.52.45-.48.06,0,.09-.03.12-.06.28-.3.76-.42.78-.96.03-.45.24-.71.49-.97.1-.1,0-.46.59,0,.09.07.14,0,.1-.09-.35-.81.23-.71.46-.93.22-.21.11-.94.5-1.03.39-.08.65-.4,1.03-.6.65-.33.97.04,1.74,1.93.64,1.57.7,1.95.65,2.37-.05.89-.78.73-1.01,1.23Z" class="cls-1"></path>
  </g>
</svg>